<?xml version="1.0" encoding="UTF-8" standalone="no"?>
<svg width="388px" height="306px" viewBox="0 0 388 306" version="1.1" xmlns="http://www.w3.org/2000/svg" xmlns:xlink="http://www.w3.org/1999/xlink" xmlns:sketch="http://www.bohemiancoding.com/sketch/ns">
    <!-- Generator: Sketch 3.2.2 (9983) - http://www.bohemiancoding.com/sketch -->
    <title>550</title>
    <desc>Created with Sketch.</desc>
    <defs></defs>
    <g id="Page-1" stroke="none" stroke-width="1" fill="none" fill-rule="evenodd" sketch:type="MSPage">
        <g id="Desktop" sketch:type="MSArtboardGroup" transform="translate(-305.000000, -359.000000)" fill="#FFFFFF">
            <g id="550" sketch:type="MSLayerGroup" transform="translate(305.000000, 359.000000)">
                <path d="M193.5,306 C188.951,306 184.465,304.802 180.526,302.537 L69.986,238.968 C61.982,234.366 57.011,225.788 57.011,216.582 L57.011,165.01 L58.011,165.01 L58.011,216.582 C58.011,225.43 62.79,233.676 70.484,238.101 L181.024,301.67 C184.812,303.848 189.126,305 193.5,305 C197.874,305 202.187,303.848 205.975,301.67 L316.515,238.101 C324.21,233.676 328.989,225.43 328.989,216.582 L328.989,165.01 L329.989,165.01 L329.989,216.582 C329.989,225.788 325.017,234.366 317.014,238.968 L206.473,302.537 C202.535,304.802 198.049,306 193.5,306 L193.5,306 Z M328.989,155.01 L329.989,155.01 L329.989,164.01 L328.989,164.01 L328.989,155.01 Z M57.011,155.01 L58.011,155.01 L58.011,164.01 L57.011,164.01 L57.011,155.01 Z M328.989,145.01 L329.989,145.01 L329.989,154.01 L328.989,154.01 L328.989,145.01 Z M57.011,145.01 L58.011,145.01 L58.011,154.01 L57.011,154.01 L57.011,145.01 Z M329.989,144.01 L328.989,144.01 L328.989,89.443 C328.989,80.594 324.21,72.348 316.515,67.923 L205.975,4.355 C202.187,2.176 197.874,1.025 193.5,1.025 C189.126,1.025 184.812,2.176 181.024,4.355 L70.484,67.923 C62.79,72.348 58.011,80.594 58.011,89.443 L58.011,144.01 L57.011,144.01 L57.011,89.443 C57.011,80.237 61.982,71.659 69.986,67.056 L180.526,3.488 C184.465,1.222 188.951,0.025 193.5,0.025 C198.049,0.025 202.535,1.222 206.473,3.488 L317.014,67.056 C325.017,71.659 329.989,80.237 329.989,89.443 L329.989,144.01 L329.989,144.01 Z" id="Fill-1" opacity="0.15" sketch:type="MSShapeGroup"></path>
                <path d="M193.5,289.182 C193.254,289.182 193.01,289.178 192.766,289.17 L192.799,288.17 C193.035,288.178 193.271,288.182 193.508,288.182 C194.249,288.182 194.994,288.143 195.726,288.069 L195.826,289.064 C195.06,289.141 194.277,289.181 193.5,289.182 L193.5,289.182 Z M189.722,288.871 C188.717,288.705 187.715,288.471 186.743,288.174 L187.035,287.217 C187.965,287.502 188.923,287.726 189.884,287.885 L189.722,288.871 L189.722,288.871 Z M198.843,288.556 L198.613,287.583 C199.562,287.357 200.502,287.066 201.409,286.72 L201.766,287.653 C200.82,288.017 199.836,288.32 198.843,288.556 L198.843,288.556 Z M183.883,287.085 C183.238,286.789 182.59,286.456 181.959,286.094 L181.2,285.656 L181.698,284.789 L182.458,285.227 C183.062,285.573 183.682,285.893 184.299,286.177 L183.883,287.085 L183.883,287.085 Z M204.545,286.372 L204.067,285.493 C204.226,285.406 204.385,285.317 204.543,285.227 L206.655,284.009 L207.155,284.876 L205.042,286.094 C204.877,286.189 204.711,286.281 204.545,286.372 L204.545,286.372 Z M178.604,284.159 L176.008,282.663 L176.508,281.796 L179.104,283.292 L178.604,284.159 L178.604,284.159 Z M209.75,283.379 L209.25,282.512 L211.846,281.016 L212.346,281.883 L209.75,283.379 L209.75,283.379 Z M173.412,281.166 L170.818,279.67 L171.318,278.803 L173.912,280.299 L173.412,281.166 L173.412,281.166 Z M214.941,280.386 L214.441,279.519 L217.036,278.023 L217.536,278.89 L214.941,280.386 L214.941,280.386 Z M168.222,278.173 L165.626,276.677 L166.126,275.81 L168.722,277.306 L168.222,278.173 L168.222,278.173 Z M220.132,277.393 L219.632,276.525 L222.227,275.029 L222.727,275.897 L220.132,277.393 L220.132,277.393 Z M163.032,275.181 L160.436,273.684 L160.936,272.817 L163.532,274.314 L163.032,275.181 L163.032,275.181 Z M225.323,274.4 L224.823,273.533 L227.418,272.036 L227.918,272.903 L225.323,274.4 L225.323,274.4 Z M157.84,272.187 L155.245,270.69 L155.745,269.824 L158.34,271.321 L157.84,272.187 L157.84,272.187 Z M230.513,271.407 L230.013,270.54 L232.609,269.043 L233.109,269.91 L230.513,271.407 L230.513,271.407 Z M152.65,269.194 L150.054,267.698 L150.554,266.831 L153.15,268.327 L152.65,269.194 L152.65,269.194 Z M235.704,268.414 L235.204,267.547 L237.799,266.051 L238.299,266.918 L235.704,268.414 L235.704,268.414 Z M147.458,266.201 L144.864,264.705 L145.364,263.838 L147.958,265.334 L147.458,266.201 L147.458,266.201 Z M240.895,265.421 L240.395,264.554 L242.991,263.058 L243.491,263.925 L240.895,265.421 L240.895,265.421 Z M142.268,263.208 L139.672,261.712 L140.172,260.845 L142.768,262.341 L142.268,263.208 L142.268,263.208 Z M246.085,262.428 L245.585,261.561 L248.181,260.065 L248.681,260.932 L246.085,262.428 L246.085,262.428 Z M137.077,260.215 L134.482,258.719 L134.982,257.852 L137.578,259.348 L137.077,260.215 L137.077,260.215 Z M251.277,259.435 L250.777,258.568 L253.371,257.071 L253.871,257.939 L251.277,259.435 L251.277,259.435 Z M131.886,257.222 L129.291,255.725 L129.791,254.859 L132.386,256.357 L131.886,257.222 L131.886,257.222 Z M256.467,256.442 L255.967,255.575 L258.563,254.078 L259.063,254.945 L256.467,256.442 L256.467,256.442 Z M126.696,254.23 L124.1,252.732 L124.6,251.865 L127.196,253.362 L126.696,254.23 L126.696,254.23 Z M261.658,253.449 L261.158,252.582 L263.753,251.085 L264.253,251.952 L261.658,253.449 L261.658,253.449 Z M121.505,251.236 L118.91,249.74 L119.41,248.873 L122.005,250.369 L121.505,251.236 L121.505,251.236 Z M266.849,250.455 L266.349,249.59 L268.944,248.093 L269.444,248.958 L266.849,250.455 L266.849,250.455 Z M116.314,248.243 L113.719,246.747 L114.219,245.88 L116.814,247.376 L116.314,248.243 L116.314,248.243 Z M272.039,247.463 L271.539,246.596 L274.135,245.1 L274.635,245.967 L272.039,247.463 L272.039,247.463 Z M111.123,245.25 L108.528,243.754 L109.028,242.887 L111.623,244.383 L111.123,245.25 L111.123,245.25 Z M277.23,244.47 L276.73,243.603 L279.325,242.107 L279.826,242.974 L277.23,244.47 L277.23,244.47 Z M105.933,242.257 L103.337,240.761 L103.837,239.894 L106.433,241.39 L105.933,242.257 L105.933,242.257 Z M282.421,241.477 L281.921,240.609 L284.516,239.113 L285.016,239.981 L282.421,241.477 L282.421,241.477 Z M100.742,239.264 L98.147,237.767 L98.647,236.901 L101.242,238.398 L100.742,239.264 L100.742,239.264 Z M287.612,238.483 L287.112,237.616 L289.706,236.12 L290.206,236.987 L287.612,238.483 L287.612,238.483 Z M95.551,236.272 L92.955,234.775 L93.455,233.907 L96.051,235.404 L95.551,236.272 L95.551,236.272 Z M292.802,235.491 L292.302,234.624 L294.898,233.127 L295.398,233.994 L292.802,235.491 L292.802,235.491 Z M90.361,233.278 L87.765,231.782 L88.265,230.915 L90.861,232.411 L90.361,233.278 L90.361,233.278 Z M297.992,232.498 L297.492,231.631 L300.088,230.134 L300.588,231.001 L297.992,232.498 L297.992,232.498 Z M85.169,230.285 L83.864,229.532 C83.422,229.277 82.992,229.01 82.572,228.73 L83.126,227.898 C83.529,228.166 83.942,228.422 84.364,228.666 L85.669,229.418 L85.169,230.285 L85.169,230.285 Z M303.185,229.503 L302.685,228.638 C303.525,228.151 304.342,227.603 305.114,227.006 L305.725,227.797 C304.918,228.421 304.064,228.995 303.185,229.503 L303.185,229.503 Z M80.146,226.865 C79.381,226.193 78.656,225.464 77.987,224.696 L78.741,224.04 C79.38,224.774 80.076,225.472 80.806,226.115 L80.146,226.865 L80.146,226.865 Z M308.015,225.771 L307.304,225.067 C307.991,224.373 308.635,223.629 309.22,222.854 L310.019,223.457 C309.407,224.267 308.733,225.045 308.015,225.771 L308.015,225.771 Z M76.136,222.26 C75.576,221.412 75.067,220.518 74.622,219.6 L75.523,219.164 C75.948,220.042 76.435,220.898 76.97,221.709 L76.136,222.26 L76.136,222.26 Z M311.698,220.899 L310.827,220.406 C311.307,219.558 311.734,218.67 312.095,217.768 L313.023,218.141 C312.645,219.083 312.199,220.011 311.698,220.899 L311.698,220.899 Z M73.475,216.764 C73.159,215.802 72.902,214.806 72.713,213.802 L73.696,213.616 C73.876,214.577 74.122,215.531 74.424,216.451 L73.475,216.764 L73.475,216.764 Z M313.97,215.231 L313.001,214.984 C313.241,214.043 313.419,213.075 313.531,212.106 L314.525,212.222 C314.408,213.234 314.221,214.247 313.97,215.231 L313.97,215.231 Z M72.352,210.763 C72.33,210.365 72.321,209.965 72.322,209.566 L72.322,207.741 L73.322,207.741 L73.322,209.566 C73.321,209.949 73.331,210.33 73.35,210.71 L72.352,210.763 L72.352,210.763 Z M313.678,206.178 L314.678,206.178 L314.678,209.174 L313.678,209.174 L313.678,206.178 Z M72.322,201.749 L73.322,201.749 L73.322,204.745 L72.322,204.745 L72.322,201.749 Z M313.678,200.187 L314.678,200.187 L314.678,203.182 L313.678,203.182 L313.678,200.187 Z M72.322,195.758 L73.322,195.758 L73.322,198.754 L72.322,198.754 L72.322,195.758 Z M313.678,194.194 L314.678,194.194 L314.678,197.19 L313.678,197.19 L313.678,194.194 Z M72.322,189.766 L73.322,189.766 L73.322,192.762 L72.322,192.762 L72.322,189.766 Z M313.678,188.202 L314.678,188.202 L314.678,191.198 L313.678,191.198 L313.678,188.202 Z M72.322,183.774 L73.322,183.774 L73.322,186.77 L72.322,186.77 L72.322,183.774 Z M313.678,182.211 L314.678,182.211 L314.678,185.206 L313.678,185.206 L313.678,182.211 Z M72.322,177.782 L73.322,177.782 L73.322,180.778 L72.322,180.778 L72.322,177.782 Z M313.678,176.219 L314.678,176.219 L314.678,179.215 L313.678,179.215 L313.678,176.219 Z M72.322,171.79 L73.322,171.79 L73.322,174.786 L72.322,174.786 L72.322,171.79 Z M313.678,170.227 L314.678,170.227 L314.678,173.223 L313.678,173.223 L313.678,170.227 Z M72.322,165.799 L73.322,165.799 L73.322,168.794 L72.322,168.794 L72.322,165.799 Z M314.678,167.232 L313.678,167.232 L313.678,164.235 L314.5,164.235 L314.5,165.01 L314.678,165.01 L314.678,167.232 L314.678,167.232 Z M72.322,159.807 L73.322,159.807 L73.322,162.803 L72.322,162.803 L72.322,159.807 Z M313.678,158.243 L314.678,158.243 L314.678,161.239 L313.678,161.239 L313.678,158.243 Z M73.322,156.811 L72.322,156.811 L72.322,155.01 L72.5,155.01 L72.5,154.01 L72.322,154.01 L72.322,153.815 L73.322,153.815 L73.322,156.811 L73.322,156.811 Z M314.678,155.247 L313.678,155.247 L313.678,152.252 L314.678,152.252 L314.678,154.01 L314.5,154.01 L314.5,155.01 L314.678,155.01 L314.678,155.247 L314.678,155.247 Z M72.322,147.823 L73.322,147.823 L73.322,150.818 L72.322,150.818 L72.322,147.823 Z M313.678,146.26 L314.678,146.26 L314.678,149.256 L313.678,149.256 L313.678,146.26 Z M73.322,144.827 L72.5,144.827 L72.5,144.01 L72.322,144.01 L72.322,141.831 L73.322,141.831 L73.322,144.827 L73.322,144.827 Z M313.678,140.268 L314.678,140.268 L314.678,143.264 L313.678,143.264 L313.678,140.268 Z M72.322,135.839 L73.322,135.839 L73.322,138.835 L72.322,138.835 L72.322,135.839 Z M313.678,134.276 L314.678,134.276 L314.678,137.272 L313.678,137.272 L313.678,134.276 Z M72.322,129.848 L73.322,129.848 L73.322,132.844 L72.322,132.844 L72.322,129.848 Z M313.678,128.284 L314.678,128.284 L314.678,131.28 L313.678,131.28 L313.678,128.284 Z M72.322,123.856 L73.322,123.856 L73.322,126.852 L72.322,126.852 L72.322,123.856 Z M313.678,122.292 L314.678,122.292 L314.678,125.288 L313.678,125.288 L313.678,122.292 Z M72.322,117.863 L73.322,117.863 L73.322,120.859 L72.322,120.859 L72.322,117.863 Z M313.678,116.301 L314.678,116.301 L314.678,119.297 L313.678,119.297 L313.678,116.301 Z M72.322,111.872 L73.322,111.872 L73.322,114.868 L72.322,114.868 L72.322,111.872 Z M313.678,110.309 L314.678,110.309 L314.678,113.305 L313.678,113.305 L313.678,110.309 Z M72.322,105.88 L73.322,105.88 L73.322,108.876 L72.322,108.876 L72.322,105.88 Z M313.678,104.316 L314.678,104.316 L314.678,107.313 L313.678,107.313 L313.678,104.316 Z M72.322,99.889 L73.322,99.889 L73.322,102.884 L72.322,102.884 L72.322,99.889 Z M313.678,98.325 L314.678,98.325 L314.678,101.321 L313.678,101.321 L313.678,98.325 Z M73.322,96.893 L72.322,96.893 L72.322,96.444 C72.322,95.582 72.371,94.707 72.468,93.845 L73.462,93.956 C73.368,94.782 73.322,95.619 73.322,96.444 L73.322,96.893 L73.322,96.893 Z M313.653,95.355 C313.603,94.379 313.489,93.4 313.313,92.447 L314.297,92.266 C314.48,93.263 314.6,94.284 314.651,95.304 L313.653,95.355 L313.653,95.355 Z M73.986,91.078 L73.015,90.834 C73.264,89.846 73.58,88.866 73.956,87.922 L74.886,88.293 C74.526,89.195 74.223,90.132 73.986,91.078 L73.986,91.078 Z M312.592,89.611 C312.288,88.684 311.921,87.771 311.5,86.896 L312.401,86.462 C312.841,87.376 313.225,88.331 313.543,89.301 L312.592,89.611 L312.592,89.611 Z M76.147,85.651 L75.276,85.161 C75.775,84.274 76.337,83.412 76.949,82.599 L77.747,83.2 C77.163,83.978 76.624,84.803 76.147,85.651 L76.147,85.651 Z M310.059,84.348 C309.527,83.537 308.932,82.751 308.293,82.013 L309.049,81.359 C309.717,82.13 310.338,82.951 310.895,83.799 L310.059,84.348 L310.059,84.348 Z M79.658,80.982 L78.945,80.281 C79.659,79.557 80.428,78.872 81.231,78.249 L81.844,79.038 C81.076,79.635 80.34,80.289 79.658,80.982 L79.658,80.982 Z M306.235,79.932 C305.508,79.288 304.729,78.687 303.918,78.143 L304.475,77.313 C305.323,77.881 306.137,78.51 306.897,79.182 L306.235,79.932 L306.235,79.932 Z M84.274,77.397 L83.764,76.538 L86.459,74.983 L86.959,75.85 L84.274,77.397 L84.274,77.397 Z M301.378,76.62 L298.783,75.124 L299.283,74.257 L301.878,75.753 L301.378,76.62 L301.378,76.62 Z M89.554,74.353 L89.054,73.486 L91.65,71.989 L92.15,72.857 L89.554,74.353 L89.554,74.353 Z M296.187,73.627 L293.592,72.131 L294.092,71.264 L296.687,72.76 L296.187,73.627 L296.187,73.627 Z M94.745,71.359 L94.246,70.492 L96.84,68.996 L97.34,69.863 L94.745,71.359 L94.745,71.359 Z M290.996,70.635 L288.401,69.138 L288.901,68.271 L291.496,69.768 L290.996,70.635 L290.996,70.635 Z M99.936,68.367 L99.436,67.5 L102.032,66.003 L102.532,66.87 L99.936,68.367 L99.936,68.367 Z M285.806,67.642 L283.21,66.145 L283.71,65.277 L286.306,66.775 L285.806,67.642 L285.806,67.642 Z M105.126,65.374 L104.626,64.507 L107.222,63.01 L107.722,63.877 L105.126,65.374 L105.126,65.374 Z M280.615,64.648 L278.02,63.151 L278.52,62.285 L281.115,63.782 L280.615,64.648 L280.615,64.648 Z M110.318,62.38 L109.818,61.515 L112.412,60.018 L112.912,60.883 L110.318,62.38 L110.318,62.38 Z M275.424,61.655 L272.828,60.159 L273.328,59.292 L275.924,60.788 L275.424,61.655 L275.424,61.655 Z M115.508,59.388 L115.008,58.521 L117.604,57.025 L118.104,57.892 L115.508,59.388 L115.508,59.388 Z M270.234,58.662 L267.638,57.166 L268.138,56.299 L270.734,57.795 L270.234,58.662 L270.234,58.662 Z M120.699,56.395 L120.199,55.527 L122.794,54.031 L123.294,54.898 L120.699,56.395 L120.699,56.395 Z M265.043,55.669 L262.448,54.173 L262.948,53.306 L265.543,54.802 L265.043,55.669 L265.043,55.669 Z M125.89,53.401 L125.39,52.534 L127.985,51.038 L128.485,51.905 L125.89,53.401 L125.89,53.401 Z M259.852,52.676 L257.257,51.18 L257.757,50.313 L260.352,51.809 L259.852,52.676 L259.852,52.676 Z M131.08,50.409 L130.58,49.542 L133.176,48.045 L133.676,48.912 L131.08,50.409 L131.08,50.409 Z M254.661,49.684 L252.066,48.187 L252.566,47.319 L255.161,48.816 L254.661,49.684 L254.661,49.684 Z M136.271,47.416 L135.771,46.549 L138.367,45.052 L138.867,45.919 L136.271,47.416 L136.271,47.416 Z M249.471,46.69 L246.875,45.194 L247.375,44.326 L249.971,45.823 L249.471,46.69 L249.471,46.69 Z M141.462,44.422 L140.962,43.557 L143.557,42.06 L144.057,42.925 L141.462,44.422 L141.462,44.422 Z M244.28,43.696 L241.685,42.199 L242.185,41.334 L244.78,42.831 L244.28,43.696 L244.28,43.696 Z M146.653,41.43 L146.153,40.563 L148.748,39.066 L149.248,39.934 L146.653,41.43 L146.653,41.43 Z M239.089,40.704 L236.493,39.208 L236.993,38.341 L239.589,39.837 L239.089,40.704 L239.089,40.704 Z M151.843,38.437 L151.343,37.57 L153.939,36.073 L154.439,36.941 L151.843,38.437 L151.843,38.437 Z M233.899,37.711 L231.303,36.215 L231.803,35.348 L234.399,36.844 L233.899,37.711 L233.899,37.711 Z M157.035,35.444 L156.535,34.576 L159.129,33.08 L159.629,33.947 L157.035,35.444 L157.035,35.444 Z M228.707,34.718 L226.113,33.222 L226.613,32.355 L229.207,33.851 L228.707,34.718 L228.707,34.718 Z M162.225,32.451 L161.725,31.584 L164.321,30.087 L164.821,30.954 L162.225,32.451 L162.225,32.451 Z M223.517,31.725 L220.921,30.229 L221.421,29.361 L224.017,30.857 L223.517,31.725 L223.517,31.725 Z M167.415,29.458 L166.915,28.591 L169.511,27.094 L170.011,27.961 L167.415,29.458 L167.415,29.458 Z M218.326,28.732 L215.731,27.235 L216.231,26.368 L218.827,27.865 L218.326,28.732 L218.326,28.732 Z M172.607,26.464 L172.107,25.599 L174.701,24.102 L175.202,24.967 L172.607,26.464 L172.607,26.464 Z M213.135,25.738 L210.54,24.241 L211.04,23.376 L213.635,24.873 L213.135,25.738 L213.135,25.738 Z M177.797,23.472 L177.297,22.604 L179.893,21.108 L180.393,21.976 L177.797,23.472 L177.797,23.472 Z M207.945,22.746 L205.349,21.249 L205.849,20.382 L208.445,21.879 L207.945,22.746 L207.945,22.746 Z M182.981,20.491 L182.504,19.612 C183.399,19.127 184.334,18.698 185.285,18.336 L185.641,19.272 C184.732,19.617 183.836,20.027 182.981,20.491 L182.981,20.491 Z M202.749,19.858 C201.87,19.451 200.95,19.099 200.016,18.811 L200.311,17.856 C201.287,18.156 202.248,18.525 203.169,18.949 L202.749,19.858 L202.749,19.858 Z M188.441,18.414 L188.212,17.441 C189.202,17.209 190.218,17.041 191.231,16.94 L191.328,17.937 C190.36,18.031 189.388,18.193 188.441,18.414 L188.441,18.414 Z M197.168,18.135 C196.208,17.975 195.228,17.876 194.254,17.843 L194.289,16.843 C195.306,16.878 196.33,16.981 197.333,17.148 L197.168,18.135 L197.168,18.135 Z" id="Fill-4" opacity="0.15" sketch:type="MSShapeGroup"></path>
                <path d="M193.5,33.422 C190.45,33.422 187.441,34.228 184.8,35.751 L96.198,86.857 C90.833,89.951 87.5,95.718 87.5,101.906 L87.5,204.118 C87.5,210.307 90.833,216.073 96.198,219.168 L184.8,270.274 C190.083,273.32 196.917,273.32 202.2,270.274 L290.802,219.168 C296.167,216.072 299.5,210.306 299.5,204.118 L299.5,101.906 C299.5,95.719 296.167,89.952 290.802,86.857 L202.2,35.751 C199.558,34.228 196.55,33.422 193.5,33.422 L193.5,33.422 Z M193.5,278.603 C189.398,278.603 185.353,277.52 181.802,275.471 L93.2,224.365 C85.983,220.202 81.5,212.444 81.5,204.118 L81.5,101.906 C81.5,93.58 85.983,85.822 93.2,81.659 L181.802,30.554 C185.353,28.505 189.398,27.422 193.5,27.422 C197.601,27.422 201.646,28.505 205.198,30.554 L293.8,81.659 C301.016,85.822 305.5,93.581 305.5,101.906 L305.5,204.118 C305.5,212.443 301.016,220.202 293.8,224.365 L205.198,275.471 C201.646,277.52 197.601,278.603 193.5,278.603 L193.5,278.603 Z" id="Fill-5" sketch:type="MSShapeGroup"></path>
                <path d="M382.5,160.009 C379.743,160.009 377.5,157.766 377.5,155.009 C377.5,152.253 379.743,150.009 382.5,150.009 C385.257,150.009 387.5,152.253 387.5,155.009 C387.5,157.766 385.257,160.009 382.5,160.009 M382.5,151.009 C380.294,151.009 378.5,152.803 378.5,155.009 C378.5,157.215 380.294,159.009 382.5,159.009 C384.706,159.009 386.5,157.215 386.5,155.009 C386.5,152.803 384.706,151.009 382.5,151.009" id="Fill-6" opacity="0.15" sketch:type="MSShapeGroup"></path>
                <path d="M329.989,144.01 L346.5,144.01 L346.5,145.01 L329.989,145.01 L329.989,144.01 Z M314.5,144.01 L328.989,144.01 L328.989,145.01 L314.5,145.01 L314.5,144.01 Z" id="Fill-7" opacity="0.15" sketch:type="MSShapeGroup"></path>
                <path d="M329.989,164.01 L346.5,164.01 L346.5,165.01 L329.989,165.01 L329.989,164.01 Z M328.989,165.01 L314.678,165.01 L314.678,164.235 L314.5,164.235 L314.5,164.01 L328.989,164.01 L328.989,165.01 L328.989,165.01 Z" id="Fill-9" opacity="0.15" sketch:type="MSShapeGroup"></path>
                <path d="M314.5,164.235 L314.678,164.235 L314.678,165.01 L314.5,165.01 L314.5,164.235 Z" id="Fill-11" sketch:type="MSShapeGroup"></path>
                <path d="M329.989,154.01 L377.5,154.01 L377.5,155.01 L329.989,155.01 L329.989,154.01 Z M314.678,154.01 L328.989,154.01 L328.989,155.01 L314.678,155.01 L314.678,154.01 Z" id="Fill-12" opacity="0.15" sketch:type="MSShapeGroup"></path>
                <path d="M5,159.011 C2.243,159.011 0,156.768 0,154.011 C0,151.254 2.243,149.011 5,149.011 C7.757,149.011 9.999,151.254 10,154.01 L9.5,154.01 L9.5,155.01 L9.9,155.01 C9.435,157.29 7.415,159.011 5,159.011 M5,150.011 C2.794,150.011 1,151.805 1,154.011 C1,156.217 2.794,158.011 5,158.011 C7.206,158.011 9,156.217 9,154.011 C9,151.805 7.206,150.011 5,150.011" id="Fill-16" opacity="0.15" sketch:type="MSShapeGroup"></path>
                <path d="M58.011,164.01 L72.5,164.01 L72.5,165.01 L58.011,165.01 L58.011,164.01 Z M40.5,164.01 L57.011,164.01 L57.011,165.01 L40.5,165.01 L40.5,164.01 Z" id="Fill-18" opacity="0.15" sketch:type="MSShapeGroup"></path>
                <path d="M72.5,145.01 L58.011,145.01 L58.011,144.01 L72.322,144.01 L72.322,144.827 L72.5,144.827 L72.5,145.01 L72.5,145.01 Z M40.5,144.01 L57.011,144.01 L57.011,145.01 L40.5,145.01 L40.5,144.01 Z" id="Fill-20" opacity="0.15" sketch:type="MSShapeGroup"></path>
                <path d="M72.322,144.01 L72.5,144.01 L72.5,144.827 L72.322,144.827 L72.322,144.01 Z" id="Fill-22" sketch:type="MSShapeGroup"></path>
                <path d="M58.011,154.01 L72.322,154.01 L72.322,155.01 L58.011,155.01 L58.011,154.01 Z M57.011,155.01 L9.9,155.01 C9.965,154.687 10,154.353 10,154.011 C10,154.011 10,154.011 10,154.01 L57.011,154.01 L57.011,155.01 L57.011,155.01 Z" id="Fill-23" opacity="0.15" sketch:type="MSShapeGroup"></path>
                <path d="M72.322,154.01 L72.5,154.01 L72.5,155.01 L72.322,155.01 L72.322,154.01 Z" id="Fill-25" sketch:type="MSShapeGroup"></path>
                <path d="M265.965,134.456 C267.874,132.707 276.429,124.82 276.429,118.385 C276.429,115.679 274.554,112.709 270.309,112.709 C267.413,112.709 264.485,114.557 263.991,118.055 L265.472,118.616 C265.932,115.679 268.203,114.425 270.21,114.425 C273.172,114.425 274.62,116.504 274.62,118.715 C274.62,123.995 267.479,130.958 263.728,134.655 L263.728,136.073 L277.449,136.073 L277.449,134.456 L265.965,134.456 L265.965,134.456 Z M244.716,143.661 L234.157,129.447 L231.39,129.447 L231.39,154.93 L234.326,154.93 L234.326,133.921 L244.547,147.681 L244.716,147.681 L254.598,133.921 L254.598,154.93 L257.534,154.93 L257.534,129.447 L254.88,129.447 L244.716,143.661 L244.716,143.661 Z M244.004,152.187 L244.004,160.266 C244.004,170.192 240.137,178.177 229.557,178.177 C218.978,178.177 215.111,170.192 215.111,160.266 L215.111,119.539 C215.111,109.727 218.978,101.742 229.557,101.742 C240.137,101.742 244.004,109.727 244.004,119.539 L244.004,133.81 C244.368,133.933 244.816,134.01 245.376,134.01 C245.848,134.01 246.216,133.944 246.507,133.837 L246.507,119.653 C246.507,108.358 241.729,99.46 229.557,99.46 C217.386,99.46 212.608,108.358 212.608,119.653 L212.608,160.266 C212.608,171.446 217.386,180.459 229.557,180.459 C241.729,180.459 246.507,171.446 246.507,160.266 L246.507,152.21 C246.199,152.088 245.802,152.01 245.286,152.01 C244.768,152.01 244.348,152.078 244.004,152.187 L244.004,152.187 Z M187.699,128.209 C181.556,128.209 177.233,130.376 174.162,135.282 L175.754,102.312 L202.259,102.312 L202.259,99.916 L173.479,99.916 L171.432,141.1 L173.82,141.1 L173.82,140.188 C175.982,134.141 180.532,130.605 187.016,130.605 C197.595,130.605 201.235,138.705 201.235,148.288 L201.235,160.266 C201.235,169.963 197.595,178.063 187.016,178.063 C176.551,178.063 172.91,169.963 172.91,160.266 L172.91,156.844 L170.408,156.844 L170.408,160.266 C170.408,171.332 175.072,180.459 187.13,180.459 C199.188,180.459 203.738,171.332 203.738,160.266 L203.738,148.173 C203.738,137.336 199.415,128.209 187.699,128.209 L187.699,128.209 Z M145.499,128.209 C139.356,128.209 135.033,130.376 131.962,135.282 L133.554,102.312 L160.059,102.312 L160.059,99.916 L131.279,99.916 L129.232,141.1 L131.62,141.1 L131.62,140.188 C133.782,134.141 138.332,130.605 144.816,130.605 C155.395,130.605 159.035,138.705 159.035,148.288 L159.035,160.266 C159.035,169.963 155.395,178.063 144.816,178.063 C134.35,178.063 130.71,169.963 130.71,160.266 L130.71,156.844 L128.208,156.844 L128.208,160.266 C128.208,171.332 132.872,180.459 144.93,180.459 C156.988,180.459 161.538,171.332 161.538,160.266 L161.538,148.173 C161.538,137.336 157.215,128.209 145.499,128.209 L145.499,128.209 Z" id="Fill-27" sketch:type="MSShapeGroup"></path>
            </g>
        </g>
    </g>
</svg>