<?xml version="1.0" encoding="UTF-8" standalone="no"?>
<svg width="90px" height="72px" viewBox="0 0 90 72" version="1.1" xmlns="http://www.w3.org/2000/svg" xmlns:xlink="http://www.w3.org/1999/xlink" xmlns:sketch="http://www.bohemiancoding.com/sketch/ns">
    <!-- Generator: Sketch 3.2.2 (9983) - http://www.bohemiancoding.com/sketch -->
    <title>cq_icons_Timer</title>
    <desc>Created with Sketch.</desc>
    <defs></defs>
    <g id="Page-1" stroke="none" stroke-width="1" fill="none" fill-rule="evenodd" sketch:type="MSPage">
        <g id="Desktop" sketch:type="MSArtboardGroup" transform="translate(-445.000000, -675.000000)" fill="#FFFFFF">
            <g id="cq_icons_Timer" sketch:type="MSLayerGroup" transform="translate(445.000000, 675.000000)">
                <g id="Group" sketch:type="MSShapeGroup">
                    <path d="M37.1,11.1 C36.1,11.1 35.3,11.9 35.3,12.9 C35.3,13.9 36.1,14.7 37.1,14.7 C38.1,14.7 38.9,13.9 38.9,12.9 C38.8,11.9 38,11.1 37.1,11.1 L37.1,11.1 Z" id="Shape"></path>
                    <circle id="Oval" cx="46.3" cy="12.8" r="1.8"></circle>
                    <path d="M55.6,11.1 C54.6,11.1 53.8,11.9 53.8,12.9 C53.8,13.9 54.6,14.7 55.6,14.7 C56.6,14.7 57.4,13.9 57.4,12.9 C57.3,11.9 56.5,11.1 55.6,11.1 L55.6,11.1 Z" id="Shape"></path>
                    <path d="M52.7,56.7 C50.6,56.7 48.8,58.2 48.3,60.2 L44.5,60.2 C44,58.2 42.3,56.7 40.1,56.7 C37.6,56.7 35.6,58.7 35.6,61.2 C35.6,63.7 37.6,65.7 40.1,65.7 C42.2,65.7 44,64.2 44.5,62.2 L48.3,62.2 C48.8,64.2 50.5,65.7 52.7,65.7 C55.2,65.7 57.2,63.7 57.2,61.2 C57.2,58.8 55.1,56.7 52.7,56.7 L52.7,56.7 Z M40,63.8 C38.6,63.8 37.5,62.7 37.5,61.3 C37.5,59.9 38.6,58.8 40,58.8 C41.4,58.8 42.5,59.9 42.5,61.3 C42.5,62.6 41.4,63.8 40,63.8 L40,63.8 Z M52.7,63.8 C51.3,63.8 50.2,62.7 50.2,61.3 L50.2,61.3 C50.2,59.9 51.3,58.8 52.7,58.8 C54.1,58.8 55.2,59.9 55.2,61.3 C55.2,62.6 54,63.8 52.7,63.8 L52.7,63.8 Z" id="Shape"></path>
                    <path d="M76.7,3.8 C76.5,3.6 76.3,3.5 76,3.5 L21.6,3.5 L21.6,1.4 C21.6,0.8 21.2,0.4 20.6,0.4 L7,0.4 C6.7,0.4 6.5,0.5 6.3,0.7 L0.3,6.7 C0.1,6.8 0,7.1 0,7.4 L0,21 C0,21.6 0.4,22 1,22 L3,22 L3,52 C3,52.3 3.1,52.5 3.3,52.7 L6.2,55.6 L6.2,67.6 C6.2,68.2 6.6,68.6 7.2,68.6 L19,68.6 L19.2,68.6 L21.7,71.1 C21.9,71.3 22.1,71.4 22.4,71.4 L81.9,71.4 C82.2,71.4 82.5,71.2 82.7,71 L88.2,63.3 C88.3,63.1 88.4,62.9 88.4,62.7 L88.4,16.2 C88.4,15.9 88.3,15.7 88.1,15.5 L76.7,3.8 L76.7,3.8 Z M2,7.8 L7.4,2.4 L19.6,2.4 L19.6,20 L2,20 L2,7.8 L2,7.8 Z M11.8,22 L80.9,22 L80.9,51.5 L17.2,51.5 L11.8,46.1 L11.8,22 L11.8,22 Z M8.3,66.6 L8.3,57.6 L17.3,66.6 L8.3,66.6 L8.3,66.6 Z M86.5,62.3 L81.5,69.4 L22.8,69.4 L5,51.6 L5,22 L9.8,22 L9.8,46.5 C9.8,46.8 9.9,47 10.1,47.2 L16.1,53.2 C16.3,53.4 16.5,53.5 16.8,53.5 L81.9,53.5 C82.5,53.5 82.9,53.1 82.9,52.5 L82.9,21 C82.9,20.4 82.5,20 81.9,20 L21.6,20 L21.6,5.5 L75.5,5.5 L86.4,16.6 L86.4,62.3 L86.5,62.3 Z" id="Shape"></path>
                    <path d="M4.9,10.3 L5.1,10.3 C5.5,10.4 6,10.2 6.2,9.8 C7,7.9 8.8,6.7 10.8,6.7 C12.8,6.7 14.7,7.9 15.4,9.8 C15.6,10.2 15.9,10.4 16.3,10.4 C16.4,10.4 16.6,10.4 16.7,10.3 C17.2,10.1 17.4,9.5 17.2,9 C16.6,7.5 15.4,6.3 14,5.5 C13,5 11.9,4.7 10.7,4.7 C9.6,4.7 8.5,5 7.5,5.5 C6.5,6 5.7,6.8 5,7.7 C4.8,8.1 4.5,8.5 4.3,9 C4.1,9.5 4.4,10.1 4.9,10.3 L4.9,10.3 Z" id="Shape"></path>
                    <path d="M5,15.7 C6.3,17.6 8.4,18.7 10.8,18.7 C13.6,18.7 16.2,17 17.3,14.4 C17.5,13.9 17.3,13.3 16.8,13.1 C16.3,12.9 15.7,13.1 15.5,13.6 C14.7,15.5 12.9,16.7 10.9,16.7 C8.9,16.7 7,15.5 6.3,13.6 C6,13.2 5.5,13 5,13.1 L4.8,13.1 C4.3,13.3 4.1,13.9 4.3,14.4 C4.5,14.9 4.8,15.3 5,15.7 L5,15.7 Z" id="Shape"></path>
                    <path d="M82.6,2.9 C82.2,2.5 81.6,2.5 81.2,2.9 C80.8,3.3 80.8,3.9 81.2,4.3 L88.1,11.2 C88.3,11.4 88.6,11.5 88.8,11.5 C89.1,11.5 89.3,11.4 89.5,11.2 C89.9,10.8 89.9,10.2 89.5,9.8 L82.6,2.9 L82.6,2.9 Z" id="Shape"></path>
                    <path d="M27.4,39.7 L25.9,44.4 L27.5,46 L30.6,36.6 L27.4,39.7 Z" id="Shape"></path>
                    <path d="M20.7,38.7 L19.1,37.1 L19.1,37.1 L16.2,45.9 L16.2,46.2 L19.3,43.1 L20.7,38.7 L20.7,38.7 Z" id="Shape"></path>
                    <path d="M19.2,45.2 L17.2,47.2 L26.3,47.2 L26.5,47.2 L24.5,45.2 L19.2,45.2 L19.2,45.2 Z" id="Shape"></path>
                    <path d="M32.8,28 C33.4,28 33.8,27.6 33.8,27 C33.8,26.4 33.4,26 32.8,26 L23.7,26 L25.7,28 L32.8,28 L32.8,28 Z" id="Shape"></path>
                    <path d="M24.1,28.5 L22.5,26.9 L19.6,35.6 L22.8,32.4 L24.1,28.5 Z" id="Shape"></path>
                    <path d="M21.7,37.6 L27.5,37.6 L28.5,36.6 L29.5,35.6 L21.7,35.6 L21.2,36.1 L20.7,36.6 L21.2,37.1 L21.7,37.6 Z" id="Shape"></path>
                    <path d="M41.4,38.8 L39.5,44.6 L41,46.3 L43.4,39.1 L42.9,37.8 L41.4,38.8 Z" id="Shape"></path>
                    <path d="M34.2,39.1 L33.6,37.8 L32.1,38.8 L29.7,45.9 L29.7,46.1 L32.5,44 L34.2,39.1 L34.2,39.1 Z" id="Shape"></path>
                    <path d="M33.5,45.2 L30.8,47.2 L39.9,47.2 L38.1,45.2 L33.5,45.2 Z" id="Shape"></path>
                    <path d="M43.6,28 L46.6,26 L46.4,26 L37.2,26 L39.2,28 L43.6,28 L43.6,28 Z" id="Shape"></path>
                    <path d="M34.3,35.4 L35.8,34.4 L37.7,28.6 L36.1,27 L33.7,34.1 L34.3,35.4 Z" id="Shape"></path>
                    <path d="M43,34.1 L43.5,35.4 L45,34.4 L47.4,27.3 L44.7,29.1 L43,34.1 Z" id="Shape"></path>
                    <path d="M60.2,37.8 L58.7,38.8 L56.7,44.8 L58.2,46.5 L60.7,39.1 L60.2,37.8 Z" id="Shape"></path>
                    <path d="M47.1,45.9 L49.9,43.8 L51.5,39.1 L50.9,37.8 L49.5,38.8 L47.1,45.9 Z" id="Shape"></path>
                    <path d="M50.5,45.2 L47.8,47.2 L48,47.2 L56.9,47.2 L55.1,45.2 L50.5,45.2 L50.5,45.2 Z" id="Shape"></path>
                    <path d="M60.3,34.1 L60.9,35.4 L62.4,34.4 L64.8,27.3 L64.8,27.1 L62,28.9 L60.3,34.1 L60.3,34.1 Z" id="Shape"></path>
                    <path d="M60.6,28 L63.7,26 L54.5,26 L54.3,26 L56.3,28 L60.6,28 L60.6,28 Z" id="Shape"></path>
                    <path d="M53,34.4 L54.9,28.8 L53.3,27.2 L51,34.1 L51.6,35.4 L53,34.4 Z" id="Shape"></path>
                    <path d="M64.4,45.2 L61.7,47.2 L70.8,47.2 L69,45.2 L64.4,45.2 Z" id="Shape"></path>
                    <path d="M72.4,38.8 L70.4,44.6 L72,46.3 L74.4,39.1 L73.8,37.8 L72.4,38.8 Z" id="Shape"></path>
                    <path d="M65.1,39.1 L64.5,37.8 L63,38.8 L60.6,45.9 L60.6,46.1 L63.4,44 L65.1,39.1 L65.1,39.1 Z" id="Shape"></path>
                    <path d="M65.2,35.4 L66.7,34.4 L68.6,28.6 L67.1,27 L64.7,34.1 L65.2,35.4 Z" id="Shape"></path>
                    <path d="M73.9,34.1 L74.5,35.4 L75.9,34.4 L78.3,27.3 L75.6,29 L73.9,34.1 Z" id="Shape"></path>
                    <path d="M74.5,28 L77.5,26 L77.3,26 L68.1,26 L70.1,28 L74.5,28 L74.5,28 Z" id="Shape"></path>
                    <path d="M48,35.4 C48.1,35.4 48.2,35.5 48.3,35.5 C48.7,35.5 49.1,35.2 49.2,34.8 L49.6,33.5 C49.8,33 49.5,32.4 49,32.2 C48.5,32 47.9,32.3 47.7,32.8 L47.3,34.1 C47.2,34.7 47.5,35.2 48,35.4 L48,35.4 Z" id="Shape"></path>
                    <path d="M47.4,40.3 C47.6,39.8 47.3,39.2 46.8,39 C46.3,38.8 45.7,39.1 45.5,39.6 L45.1,40.5 C44.9,41 45.2,41.6 45.7,41.8 C45.8,41.8 45.9,41.9 46.1,41.9 C46.5,41.9 46.9,41.7 47,41.3 L47.4,40.3 L47.4,40.3 Z" id="Shape"></path>
                    <circle id="Oval" cx="10.8" cy="11.8" r="1.8"></circle>
                </g>
            </g>
        </g>
    </g>
</svg>