<?xml version="1.0" encoding="UTF-8" standalone="no"?>
<svg width="79px" height="85px" viewBox="0 0 79 85" version="1.1" xmlns="http://www.w3.org/2000/svg" xmlns:xlink="http://www.w3.org/1999/xlink" xmlns:sketch="http://www.bohemiancoding.com/sketch/ns">
    <!-- Generator: Sketch 3.2.2 (9983) - http://www.bohemiancoding.com/sketch -->
    <title>cq_icons_Mountain</title>
    <desc>Created with Sketch.</desc>
    <defs></defs>
    <g id="Page-1" stroke="none" stroke-width="1" fill="none" fill-rule="evenodd" sketch:type="MSPage">
        <g id="Desktop" sketch:type="MSArtboardGroup" transform="translate(-428.000000, -511.000000)" fill="#FFFFFF">
            <g id="cq_icons_Mountain" sketch:type="MSLayerGroup" transform="translate(428.000000, 511.000000)">
                <g id="Group" sketch:type="MSShapeGroup">
                    <path d="M78.4,54.6 L78.4,30.5 C78.4,24.7 74.3,17.5 69.2,14.6 L48.3,2.6 C45.8,1.2 42.6,0.4 39.1,0.4 C35.6,0.4 32.4,1.2 29.9,2.6 L9,14.6 C4.1,17.5 0,24.7 0,30.5 L0,54.6 C0,60.4 4.1,67.5 9.2,70.5 L30.1,82.5 C32.6,83.9 35.8,84.7 39.3,84.7 C42.8,84.7 46,83.9 48.5,82.5 L69.4,70.5 C73.9,67.9 77.6,62 78.4,56.6 L78.5,56.5 C78.6,56.3 78.6,56 78.5,55.8 C78.3,55.3 78.4,55 78.4,54.6 L78.4,54.6 Z M39.2,82.7 C36.1,82.7 33.2,82 31,80.8 L10.1,68.8 C9.3,68.4 8.6,67.8 7.9,67.1 L70.4,67.1 C69.7,67.8 68.9,68.3 68.2,68.8 L47.3,80.8 C45.2,82 42.3,82.7 39.2,82.7 L39.2,82.7 Z M72.3,65.1 L6.1,65.1 C3.7,62 2,58 2,54.6 L2,53.7 L16.2,38.9 C16.9,39.4 17.8,39.7 18.8,39.7 C21.4,39.7 23.6,37.6 23.6,34.9 C23.6,33.9 23.3,32.9 22.7,32.1 L38.7,15.5 L38.6,22.8 C38.6,23.4 39,23.8 39.6,23.8 L39.6,23.8 C40.1,23.8 40.6,23.4 40.6,22.8 L40.7,13 C40.7,12.7 40.6,12.5 40.4,12.3 C40.2,12.1 40,12 39.7,12 L29.9,12.1 C29.3,12.1 28.9,12.6 28.9,13.1 C28.9,13.6 29.4,14.1 29.9,14.1 L29.9,14.1 L37.3,14 L21.2,30.8 C20.5,30.4 19.7,30.1 18.8,30.1 C16.2,30.1 14,32.2 14,34.9 C14,35.8 14.3,36.7 14.8,37.5 L2,50.8 L2,30.5 C2,25.4 5.7,18.9 10.2,16.4 L31,4.3 C33.2,3.1 36.1,2.4 39.2,2.4 C42.3,2.4 45.2,3.1 47.4,4.3 L68.3,16.3 C72.7,18.9 76.5,25.3 76.5,30.4 L76.5,53.5 L59.9,37.1 C59.1,36.3 58,35.8 56.8,35.8 C55.6,35.8 54.6,36.3 53.7,37.1 L53.2,37.6 L45,29.4 C44.2,28.6 43.1,28.1 41.9,28.1 C40.7,28.1 39.7,28.6 38.8,29.4 L31,37.3 L31,37.3 L13,55.3 C12.7,55.6 12.6,56 12.8,56.4 C13,56.8 13.3,57 13.7,57 L76.1,57 C75.5,59.8 74.1,62.7 72.3,65.1 L72.3,65.1 Z M16.1,34.9 C16.1,33.4 17.3,32.1 18.9,32.1 C19.2,32.1 19.6,32.2 19.9,32.3 C20.5,32.5 21.1,33 21.4,33.6 C21.6,34 21.7,34.4 21.7,34.9 C21.7,36.4 20.5,37.7 18.9,37.7 C18.5,37.7 18.1,37.6 17.7,37.4 C17.1,37.1 16.6,36.6 16.3,36 C16.1,35.6 16.1,35.2 16.1,34.9 L16.1,34.9 Z M33.1,38 L40.3,30.8 C41.2,29.9 42.7,29.9 43.6,30.8 L51.8,39 L48.4,42.4 C47.5,43.3 46,43.3 45.1,42.4 L39.4,36.7 C39.2,36.5 38.9,36.4 38.7,36.4 C38.4,36.4 38.2,36.5 38,36.7 L36.5,38.2 C35.7,39 34.1,39 33.1,38 L33.1,38 L33.1,38 Z M16.1,55 L31.7,39.4 L31.8,39.5 C32.6,40.3 33.7,40.8 34.9,40.8 C36.1,40.8 37.1,40.3 38,39.5 L38.8,38.7 L43.8,43.7 C44.6,44.5 45.7,45 46.9,45 C48.1,45 49.1,44.5 50,43.7 L53.8,39.9 C53.9,39.9 54,39.8 54.1,39.7 L55.3,38.5 C56.2,37.6 57.7,37.6 58.6,38.5 L75,55 L16.1,55 L16.1,55 Z" id="Shape"></path>
                    <circle id="Oval" cx="8.6" cy="24.6" r="1.9"></circle>
                    <circle id="Oval" cx="70.6" cy="24.6" r="1.9"></circle>
                    <path d="M39.7,71.3 C37.3,71.3 35.4,73.2 35.4,75.6 C35.4,78 37.3,79.9 39.7,79.9 C42.1,79.9 44,78 44,75.6 C44,73.2 42.1,71.3 39.7,71.3 L39.7,71.3 Z M39.7,77.9 C38.4,77.9 37.4,76.9 37.4,75.6 C37.4,74.3 38.4,73.3 39.7,73.3 C41,73.3 42,74.3 42,75.6 C42,76.8 41,77.9 39.7,77.9 L39.7,77.9 Z" id="Shape"></path>
                </g>
            </g>
        </g>
    </g>
</svg>