<?xml version="1.0" encoding="UTF-8" standalone="no"?>
<svg width="22px" height="28px" viewBox="0 0 22 28" version="1.1" xmlns="http://www.w3.org/2000/svg" xmlns:xlink="http://www.w3.org/1999/xlink" xmlns:sketch="http://www.bohemiancoding.com/sketch/ns">
    <!-- Generator: Sketch 3.2.2 (9983) - http://www.bohemiancoding.com/sketch -->
    <title>cq_icons_Age</title>
    <desc>Created with Sketch.</desc>
    <defs></defs>
    <g id="Page-1" stroke="none" stroke-width="1" fill="none" fill-rule="evenodd" sketch:type="MSPage">
        <g id="Desktop" sketch:type="MSArtboardGroup" transform="translate(-438.000000, -790.000000)" fill="#79C3E7">
            <g id="cq_icons_Age" sketch:type="MSLayerGroup" transform="translate(438.000000, 790.000000)">
                <path d="M10.6,21 C6.7,21 0,20.2 0,17.3 C0,14.7 5.2,13.9 7.4,13.7 C7.9,13.7 8.4,14.1 8.5,14.6 C8.5,15.1 8.1,15.6 7.6,15.7 C3.7,16 2.1,16.9 2,17.3 C2.3,17.8 5.5,19 10.6,19 C15.7,19 18.9,17.8 19.2,17.2 C19.1,16.9 17.5,16 13.6,15.6 C13,15.5 12.6,15.1 12.7,14.5 C12.8,13.9 13.2,13.5 13.8,13.6 C16,13.8 21.2,14.6 21.2,17.2 C21.2,20.2 14.6,21 10.6,21 L10.6,21 Z" id="Shape" sketch:type="MSShapeGroup"></path>
                <path d="M10.6,18.2 C8.6,18.2 7.5,17.6 7.5,16.6 L7.5,12.7 C7.5,11.2 7,10.5 6.1,9.1 L5.9,8.7 C5.4,7.9 5,6.9 5,5.9 C4.9,4.4 5.5,2.9 6.5,1.8 C7.6,0.7 9,0 10.5,0 L10.5,0 C13.7,0 16.2,2.5 16.2,5.6 C16.2,6.7 15.9,7.7 15.3,8.6 L15.1,8.9 C14.1,10.4 13.6,11.2 13.6,12.9 L13.6,16.6 C13.7,17.6 12.6,18.2 10.6,18.2 L10.6,18.2 Z M9.5,16.1 C9.7,16.2 10.1,16.2 10.6,16.2 C11.1,16.2 11.4,16.1 11.7,16.1 L11.7,12.9 C11.7,10.7 12.4,9.5 13.5,7.9 L13.7,7.6 C14.1,7 14.2,6.4 14.2,5.7 C14.2,3.7 12.6,2.1 10.6,2.1 C9.6,2 8.7,2.4 8,3.2 C7.3,3.9 7,4.9 7,5.8 C7,6.4 7.2,7.1 7.6,7.6 L7.8,8 C8.8,9.5 9.5,10.5 9.5,12.7 L9.5,16.1 L9.5,16.1 Z" id="Shape" sketch:type="MSShapeGroup"></path>
                <path d="M10.6,27.5 C7.6,27.5 5.2,25.1 5.2,22.1 C5.2,21.3 5.4,20.5 5.7,19.8 C5.9,19.3 6.5,19.1 7,19.3 C7.5,19.5 7.7,20.1 7.5,20.6 C7.3,21.1 7.2,21.5 7.2,22 C7.2,23.9 8.7,25.4 10.6,25.4 C12.5,25.4 14,24 14,22.1 C14,21.5 13.9,21 13.6,20.4 C13.3,19.9 13.5,19.3 14,19 C14.5,18.7 15.1,18.9 15.4,19.4 C15.8,20.2 16.1,21.1 16.1,22 C16,25.1 13.6,27.5 10.6,27.5 L10.6,27.5 Z" id="Shape" sketch:type="MSShapeGroup"></path>
            </g>
        </g>
    </g>
</svg>