<?xml version="1.0" encoding="UTF-8" standalone="no"?>
<svg width="88px" height="78px" viewBox="0 0 88 78" version="1.1" xmlns="http://www.w3.org/2000/svg" xmlns:xlink="http://www.w3.org/1999/xlink" xmlns:sketch="http://www.bohemiancoding.com/sketch/ns">
    <!-- Generator: Sketch 3.2.2 (9983) - http://www.bohemiancoding.com/sketch -->
    <title>cq_icons_Win</title>
    <desc>Created with Sketch.</desc>
    <defs></defs>
    <g id="Page-1" stroke="none" stroke-width="1" fill="none" fill-rule="evenodd" sketch:type="MSPage">
        <g id="Desktop" sketch:type="MSArtboardGroup" transform="translate(-518.000000, -776.000000)" fill="#FFFFFF">
            <g id="cq_icons_Win" sketch:type="MSLayerGroup" transform="translate(518.000000, 776.000000)">
                <g id="Group" sketch:type="MSShapeGroup">
                    <path d="M43,67.6 C43.2,66.6 43.5,63.1 40.8,60.4 C37.9,57.5 33.7,56.6 32.1,57.3 C31.9,57.4 31.7,57.6 31.6,57.8 C30.9,59.4 31.8,63.6 34.7,66.5 C34.9,66.7 35.2,67 35.5,67.2 C32.7,66.6 30,65.5 27.6,64.2 C27.6,64.1 27.6,64.1 27.7,64 C28.3,63.2 30.4,60.3 29.4,56.7 C28.4,52.8 25.1,49.9 23.4,49.7 C23.1,49.7 22.9,49.7 22.7,49.9 C21.3,50.9 20,55.1 21.1,59 C21.2,59.2 21.2,59.4 21.3,59.6 C19.3,57.7 17.6,55.6 16.2,53.2 C17.2,52.8 20.4,51.3 21.3,47.7 C22.3,43.8 21,39.6 19.7,38.6 C19.5,38.4 19.2,38.4 19,38.4 C17.3,38.6 14.1,41.5 13,45.4 C13,45.4 13,45.4 13,45.5 C12.4,43.1 12,40.6 12,38.1 C12.3,38.1 12.6,38.2 13.1,38.2 C14.7,38.2 17,37.8 18.9,35.9 C21.8,33 22.7,28.8 22,27.2 C21.9,27 21.7,26.8 21.5,26.7 C20,26.1 16.1,26.9 13.2,29.4 C13.8,27.2 14.7,25.1 15.9,23.1 C16.8,23.7 18.6,24.7 20.8,24.7 C21.5,24.7 22.1,24.6 22.7,24.4 C26.6,23.4 29.5,20.1 29.7,18.4 C29.7,18.1 29.7,17.9 29.5,17.7 C28.7,16.7 26.2,15.7 23.3,15.7 C22.7,15.7 22,15.8 21.4,15.9 C21.9,15.5 22.3,15.1 22.8,14.6 C23.2,14.7 23.9,14.8 24.7,14.8 C26.1,14.8 28.2,14.5 30,12.9 C33,10.2 34.2,6 33.7,4.4 C33.6,4.2 33.4,3.9 33.2,3.8 C32.8,3.6 32.3,3.5 31.6,3.5 C29.8,3.5 26.7,4.2 24.4,6.3 C22,8.4 21.7,11.4 21.7,12.8 C20.6,13.7 19.5,14.7 18.5,15.8 C18.5,15.5 18.4,15.1 18.3,14.8 C17.2,10.9 14,8 12.3,7.8 C12,7.8 11.8,7.8 11.6,8 C10.3,9 9,13.1 10,17.1 C10.7,19.8 12.7,21.3 14,22 C12.6,24.6 11.5,27.3 10.8,30.2 C10.7,30 10.5,29.9 10.4,29.7 C7.5,26.8 3.3,25.9 1.7,26.6 C1.5,26.7 1.3,26.9 1.2,27.1 C0.5,28.7 1.4,32.9 4.3,35.8 C6.1,37.6 8.4,38 10,38 C10,41 10.5,43.8 11.3,46.5 C11.2,46.5 11.1,46.4 11.1,46.4 C10.2,46.1 9.2,46 8.2,46 C5.3,46 2.8,47 2.1,48 C1.9,48.2 1.9,48.5 1.9,48.7 C2.1,50.4 5,53.6 8.9,54.7 C9.4,55 10,55.1 10.7,55.1 C12.2,55.1 13.5,54.6 14.5,54.1 C16,56.6 17.8,58.8 19.8,60.8 C15.9,61.9 13,65.1 12.8,66.7 C12.8,67 12.8,67.2 13,67.4 C13.8,68.4 16.3,69.4 19.2,69.4 C20.2,69.4 21.2,69.3 22.1,69 C24.3,68.4 25.7,67 26.6,65.7 C29.1,67.1 31.7,68.1 34.5,68.8 C31.8,71.7 30.9,75.8 31.6,77.3 C31.7,77.5 31.9,77.7 32.1,77.8 C32.4,77.9 32.8,78 33.3,78 C35.3,78 38.5,77 40.7,74.7 C42.7,72.7 43,70.3 43,68.7 L43,68.7 C43.1,68.2 43,67.8 43,67.6 L43,67.6 Z M31.9,5.5 C31.8,6.7 31,9.3 28.8,11.3 C27.5,12.5 25.9,12.7 24.8,12.7 C24.4,12.7 24,12.7 23.8,12.6 C23.8,11.5 24,9.3 25.8,7.8 C28,5.8 30.8,5.4 31.9,5.5 L31.9,5.5 Z M12.6,10 C13.6,10.6 15.7,12.5 16.4,15.4 C16.7,16.4 16.6,17.4 16.3,18.5 C16.3,18.6 16.2,18.8 16.2,18.9 C16,19.4 16.2,19.9 16.6,20.1 C16.9,20.3 17.3,20.3 17.6,20.1 C17.7,20 17.8,20 17.9,19.9 C18.7,18.9 19.7,18.3 20.8,18 C21.6,17.8 22.4,17.7 23.2,17.7 C25.1,17.7 26.7,18.2 27.4,18.6 C26.8,19.6 24.9,21.7 22,22.4 C21.5,22.5 21.1,22.6 20.6,22.6 C18.9,22.6 17.4,21.8 16.8,21.3 C16.7,21.2 16.6,21.1 16.5,21.1 C16.5,21 16.4,21 16.3,20.9 C16.1,20.8 15.9,20.7 15.7,20.7 C15.5,20.6 15.3,20.5 14.9,20.3 C13.9,19.7 12.3,18.6 11.8,16.6 C11.2,13.6 12,11 12.6,10 L12.6,10 Z M10.7,53.1 C10.2,53.1 9.7,53 9.3,52.9 C6.4,52.1 4.5,50.1 3.9,49.1 C4.6,48.7 6.1,48.2 8.1,48.2 C8.9,48.2 9.7,48.3 10.5,48.5 C11.1,48.7 11.6,48.9 12.1,49.2 C12.6,49.5 13,49.9 13.4,50.4 C13.7,50.8 14.2,50.9 14.7,50.6 C14.8,50.6 14.8,50.5 14.8,50.5 C15.1,50.2 15.2,49.8 15.1,49.4 C14.7,48.2 14.6,47 14.9,45.9 C15.7,43 17.7,41.1 18.7,40.5 C19.3,41.5 20.1,44.2 19.3,47.1 C18.5,49.9 15.8,51 15.3,51.2 C15.2,51.2 15.2,51.2 15.1,51.3 C15.1,51.3 15,51.3 15,51.4 C14.9,51.5 14.8,51.5 14.7,51.6 C14.5,51.8 14,52.1 13.4,52.4 C12.8,52.8 11.8,53.1 10.7,53.1 L10.7,53.1 Z M9,31.1 C9.6,31.7 10,32.4 10.3,33.1 C10.4,33.5 10.5,33.8 10.6,34.2 C10.7,34.7 11.1,35 11.6,35 L11.6,35 C11.8,35 12,34.9 12.1,34.8 C12.3,34.7 12.5,34.4 12.6,34.1 C12.8,32.8 13.4,31.8 14.2,30.9 C16.2,28.9 18.9,28.2 20.2,28.2 C20.2,29.4 19.6,32.1 17.5,34.2 C16,35.7 14.3,36 13,36 C12.5,36 12.2,36 12,35.9 L12,35.9 C11.9,35.8 11.7,35.8 11.6,35.8 C11.4,35.8 11.3,35.8 11.2,35.9 C11,35.9 10.6,36 10.2,36 L10.1,36 C8.9,36 7.2,35.7 5.8,34.3 C3.7,32.2 3.1,29.4 3.1,28.3 C4.3,28.4 7,29.1 9,31.1 L9,31.1 Z M24.9,64.8 C24.2,65.7 23.2,66.8 21.6,67.2 C20.8,67.4 20,67.5 19.2,67.5 C17.3,67.5 15.7,67 15,66.6 C15.6,65.6 17.5,63.5 20.4,62.8 C20.8,62.7 21.3,62.6 21.8,62.6 C22.5,62.6 23.2,62.7 23.9,63 C24.3,63.2 24.8,63 25.1,62.6 L25.1,62.6 C25.3,62.2 25.2,61.6 24.9,61.3 C23.9,60.5 23.3,59.5 23,58.4 C22.2,55.5 23.1,52.8 23.6,51.8 C24.6,52.4 26.7,54.3 27.4,57.2 C28.2,60 26.4,62.3 26,62.8 C25.9,62.9 25.8,63 25.8,63.1 L25.8,63.2 C25.8,63.3 25.7,63.4 25.7,63.4 C25.6,63.5 25.4,64.1 24.9,64.8 L24.9,64.8 Z M33.4,76.2 C33.4,75 34,72.3 36.1,70.2 C36.4,69.9 36.7,69.7 37,69.5 C37.7,69.1 38.4,68.8 39.2,68.6 C39.6,68.5 39.9,68.2 40,67.8 L40,67.6 C40,67.1 39.6,66.7 39.2,66.6 C38,66.4 37,65.9 36.1,65 C34,62.9 33.4,60.1 33.4,59 C34.7,59 37.4,59.7 39.4,61.7 C41.5,63.8 41.1,66.7 41,67.2 C41,67.3 40.9,67.5 41,67.6 L41,67.7 L41,67.8 C41,68.1 41.1,68.8 41,69.7 C40.9,70.8 40.5,72.2 39.4,73.3 C37.4,75.4 34.8,76.2 33.4,76.2 L33.4,76.2 Z" id="Shape"></path>
                    <path d="M83.9,35.8 C86.8,32.9 87.7,28.7 87,27.1 C86.9,26.9 86.7,26.7 86.5,26.6 C84.9,25.9 80.7,26.9 77.8,29.7 C77.7,29.8 77.5,30 77.4,30.2 C76.7,27.3 75.6,24.6 74.2,22 C75.6,21.2 77.5,19.7 78.2,17.1 C79.3,13.1 78,9 76.6,8 C76.4,7.8 76.1,7.8 75.9,7.8 C74.2,8 71,10.9 69.9,14.8 C69.8,15.1 69.8,15.5 69.7,15.8 C68.9,14.9 68,14 67,13.2 C67.1,11.3 65.9,7.7 63.2,5.4 C61.4,3.8 59.3,3.5 57.9,3.5 C56.6,3.5 55.7,3.8 55.6,3.8 C55.2,3.9 55,4.2 54.9,4.6 C54.9,4.8 54.2,9.1 57.5,11.9 C59.9,14 62.9,14.7 64.7,14.7 C65,14.7 65.3,14.7 65.5,14.6 C65.9,15 66.3,15.3 66.8,15.7 C66.2,15.6 65.6,15.5 64.9,15.5 C62,15.5 59.5,16.5 58.7,17.5 C58.5,17.7 58.5,18 58.5,18.2 C58.7,19.9 61.6,23.1 65.5,24.2 C66.1,24.4 66.8,24.5 67.4,24.5 C69.6,24.5 71.4,23.5 72.3,22.9 C73.4,24.9 74.3,27 75,29.2 C72.2,26.6 68.2,25.8 66.7,26.5 C66.5,26.6 66.3,26.8 66.2,27 C65.5,28.6 66.5,32.8 69.3,35.7 C71.2,37.6 73.5,38 75.1,38 C75.5,38 75.9,38 76.2,37.9 C76.2,40.5 75.8,43 75.2,45.4 L75.2,45.3 C74.2,41.4 70.9,38.5 69.2,38.3 C68.9,38.3 68.7,38.3 68.5,38.5 C67.2,39.5 65.8,43.7 66.9,47.6 C67.9,51.2 71.1,52.7 72.1,53.1 C70.8,55.2 69.3,57.2 67.5,59 C67.4,59.1 67.2,59.3 67.1,59.4 C67.2,59.2 67.3,59 67.3,58.8 C68.4,54.9 67,50.7 65.7,49.7 C65.5,49.5 65.2,49.5 65,49.5 C63.3,49.7 60.1,52.6 59,56.5 C58,60.2 60.1,63.1 60.7,63.8 C60.7,63.9 60.7,63.9 60.8,64 C58.3,65.4 55.6,66.4 52.8,67 C53.1,66.8 53.3,66.6 53.6,66.3 C56.5,63.4 57.4,59.2 56.7,57.6 C56.6,57.4 56.4,57.2 56.2,57.1 C54.6,56.4 50.4,57.4 47.5,60.2 C44.8,62.9 45.2,66.4 45.3,67.4 C45.3,67.6 45.2,68.1 45.2,68.7 L45.2,68.7 C45.2,70.2 45.5,72.7 47.5,74.7 C49.8,77 53,78 54.9,78 C55.4,78 55.8,77.9 56.1,77.8 C56.3,77.7 56.5,77.5 56.6,77.3 C57.2,75.8 56.4,71.7 53.7,68.8 C56.5,68.1 59.1,67.1 61.6,65.7 C62.4,66.9 63.9,68.4 66.1,69 C67,69.2 68,69.4 69,69.4 C71.9,69.4 74.4,68.4 75.2,67.4 C75.4,67.2 75.4,66.9 75.4,66.7 C75.2,65 72.3,61.8 68.4,60.8 C68.5,60.7 68.7,60.5 68.8,60.4 C70.7,58.5 72.3,56.4 73.7,54.1 C74.7,54.6 76,55.1 77.5,55.1 C78.2,55.1 78.8,55 79.4,54.8 C83.3,53.8 86.2,50.5 86.4,48.8 C86.4,48.5 86.4,48.3 86.2,48.1 C85.4,47.1 82.9,46.1 80.1,46.1 C79.1,46.1 78.1,46.2 77.2,46.5 C77.1,46.5 77.1,46.5 77,46.6 C77.8,43.9 78.2,41 78.2,38.1 C79.9,38 82.1,37.6 83.9,35.8 L83.9,35.8 Z M71.4,21.2 C70.7,21.7 69.3,22.5 67.6,22.5 C67.1,22.5 66.6,22.4 66.2,22.3 C63.3,21.5 61.4,19.5 60.8,18.5 C61.5,18.1 63,17.6 65,17.6 C65.8,17.6 66.6,17.7 67.4,17.9 C68.5,18.2 69.5,18.9 70.3,19.8 C70.4,19.9 70.5,20 70.6,20 C70.9,20.2 71.3,20.2 71.6,20 C72,19.8 72.2,19.2 72,18.8 C71.9,18.7 71.9,18.5 71.9,18.4 C71.6,17.3 71.5,16.3 71.8,15.3 C72.6,12.4 74.6,10.5 75.6,9.9 C76.2,10.9 77,13.6 76.2,16.5 C75.7,18.5 74.1,19.7 73.1,20.2 C72.8,20.4 72.5,20.5 72.3,20.6 C72.2,20.6 72,20.7 71.9,20.7 C71.8,20.8 71.7,20.9 71.6,21 C71.7,21.1 71.6,21.2 71.4,21.2 L71.4,21.2 Z M61.9,6.9 C64.2,8.9 64.9,11.6 65,12.7 L64.7,12.7 C63.5,12.7 60.9,12.2 58.8,10.4 C57,8.9 56.8,6.7 56.8,5.6 C57.1,5.6 57.4,5.5 57.8,5.5 C59,5.5 60.6,5.7 61.9,6.9 L61.9,6.9 Z M52.1,70.2 C54.2,72.3 54.8,75 54.8,76.2 C53.5,76.2 50.8,75.5 48.8,73.5 C47.7,72.4 47.3,71 47.2,69.9 C47.1,69.1 47.2,68.4 47.2,68.1 C47.2,68 47.2,68 47.3,67.9 L47.3,67.7 C47.3,67.5 47.3,67.4 47.2,67.2 C47.1,66.5 46.8,63.7 48.8,61.8 C50.8,59.8 53.5,59.1 54.8,59.1 C54.8,60.3 54.2,63 52.1,65.1 C51.3,65.9 50.2,66.5 48.9,66.7 C48.4,66.8 48.1,67.2 48.1,67.7 L48.1,67.9 C48.2,68.3 48.5,68.6 48.9,68.7 C49.7,68.8 50.5,69.1 51.1,69.6 C51.5,69.7 51.8,69.9 52.1,70.2 L52.1,70.2 Z M73.2,66.6 C72.5,67 71,67.5 69,67.5 C68.2,67.5 67.4,67.4 66.6,67.2 C65,66.8 64,65.7 63.3,64.8 C62.9,64.2 62.6,63.6 62.5,63.3 C62.5,63.2 62.5,63.1 62.4,63 C62.4,63 62.4,63 62.4,62.9 C62.3,62.7 62.2,62.6 62.1,62.5 C61.6,61.9 60.1,59.7 60.8,57 C61.6,54.1 63.6,52.2 64.6,51.6 C65.2,52.6 66,55.3 65.2,58.2 C64.9,59.3 64.2,60.3 63.3,61.1 C62.9,61.4 62.8,61.9 63.1,62.4 C63.1,62.4 63.1,62.4 63.1,62.5 C63.4,62.9 63.8,63 64.3,62.9 C65,62.6 65.8,62.5 66.5,62.5 C67,62.5 67.4,62.5 67.8,62.7 C70.8,63.5 72.7,65.6 73.2,66.6 L73.2,66.6 Z M75.2,36 C74,36 72.2,35.7 70.8,34.3 C68.7,32.2 68.1,29.4 68.1,28.3 C69.4,28.3 72.1,29 74.1,31 C74.9,31.8 75.5,32.9 75.7,34.2 C75.7,34.5 75.9,34.7 76.2,34.9 C76.4,35 76.5,35.1 76.7,35.1 C77.2,35.1 77.6,34.7 77.7,34.3 C77.8,33.9 77.9,33.5 78,33.2 C78.3,32.4 78.7,31.7 79.3,31.2 C81.3,29.2 84,28.5 85.3,28.5 C85.3,29.7 84.7,32.4 82.6,34.5 C81.3,35.8 79.6,36.2 78.3,36.2 L78.2,36.2 C77.7,36.2 77.4,36.2 77.2,36.1 C77.1,36 76.9,36 76.7,36 C76.6,36 76.5,36 76.4,36.1 L76.3,36.1 C76.1,36 75.7,36 75.2,36 L75.2,36 Z M80.2,48.1 C82.1,48.1 83.7,48.6 84.4,49 C83.8,50 81.9,52.1 79,52.8 C78.5,52.9 78.1,53 77.6,53 C76.5,53 75.5,52.7 74.8,52.3 C74.2,52 73.8,51.7 73.5,51.5 C73.4,51.4 73.3,51.3 73.2,51.2 L73.1,51.2 C73,51.2 72.9,51.1 72.8,51.1 C72.1,50.8 69.6,49.7 68.9,47 C68.1,44.1 69,41.4 69.5,40.4 C70.5,41 72.6,42.9 73.3,45.8 C73.6,46.9 73.5,48.1 73.1,49.3 C72.9,49.7 73.1,50.1 73.4,50.4 L73.5,50.5 C73.9,50.7 74.5,50.6 74.8,50.3 C75.2,49.8 75.7,49.4 76.1,49.1 C76.6,48.8 77.1,48.5 77.7,48.4 C78.6,48.2 79.4,48.1 80.2,48.1 L80.2,48.1 Z" id="Shape"></path>
                    <path d="M62.3,37.1 C62.3,27.1 54.2,19 44.2,19 C34.2,19 26,27 26,37.1 C26,47.1 34.1,55.2 44.1,55.2 C54.1,55.2 62.3,47.1 62.3,37.1 L62.3,37.1 Z M44.1,53.2 C35.2,53.2 28,46 28,37.1 C28,28.2 35.2,21 44.1,21 C53,21 60.2,28.2 60.2,37.1 C60.3,46 53,53.2 44.1,53.2 L44.1,53.2 Z" id="Shape"></path>
                    <path d="M44.1,9.2 C46.5,9.2 48.5,7.2 48.5,4.8 C48.5,2.4 46.5,0.4 44.1,0.4 C41.7,0.4 39.7,2.4 39.7,4.8 C39.7,7.2 41.7,9.2 44.1,9.2 L44.1,9.2 Z M44.1,2.4 C45.4,2.4 46.5,3.5 46.5,4.8 C46.5,6.1 45.4,7.2 44.1,7.2 C42.8,7.2 41.7,6.1 41.7,4.8 C41.7,3.5 42.8,2.4 44.1,2.4 L44.1,2.4 Z" id="Shape"></path>
                    <path d="M46.1,42.1 L45.8,42.1 L45.8,42 L45.8,28.9 C45.8,28.5 45.6,28.1 45.2,28 C44.8,27.8 44.4,27.9 44.1,28.2 L42,30.3 C41.6,30.7 41.6,31.3 42,31.7 C42.3,32 42.6,32 43,31.9 C43.2,31.9 43.3,31.8 43.4,31.7 L43.8,31.3 L43.8,42.1 L43.1,42.1 C42.5,42.1 42.1,42.5 42.1,43.1 C42.1,43.7 42.5,44.1 43.1,44.1 L46.1,44.1 C46.7,44.1 47.1,43.7 47.1,43.1 C47.1,42.6 46.7,42.1 46.1,42.1 L46.1,42.1 Z" id="Shape"></path>
                </g>
            </g>
        </g>
    </g>
</svg>