<?xml version="1.0" encoding="UTF-8" standalone="no"?>
<svg width="29px" height="25px" viewBox="0 0 29 25" version="1.1" xmlns="http://www.w3.org/2000/svg" xmlns:xlink="http://www.w3.org/1999/xlink" xmlns:sketch="http://www.bohemiancoding.com/sketch/ns">
    <!-- Generator: Sketch 3.2.2 (9983) - http://www.bohemiancoding.com/sketch -->
    <title>cq_icons_Time</title>
    <desc>Created with Sketch.</desc>
    <defs></defs>
    <g id="Page-1" stroke="none" stroke-width="1" fill="none" fill-rule="evenodd" sketch:type="MSPage">
        <g id="Desktop" sketch:type="MSArtboardGroup" transform="translate(-431.000000, -753.000000)" fill="#79C3E7">
            <g id="cq_icons_Time" sketch:type="MSLayerGroup" transform="translate(431.000000, 753.000000)">
                <path d="M4.9,23.5 C2.2,23.5 0,21.3 0,18.6 C0,15.9 2.2,13.7 4.9,13.7 C5.5,13.7 5.9,14.1 5.9,14.7 C5.9,15.3 5.5,15.7 4.9,15.7 C3.3,15.8 2,17 2,18.6 C2,20.2 3.3,21.5 4.9,21.5 C6.1,21.5 7.1,20.8 7.5,19.8 C7.7,19.3 8.3,19 8.8,19.2 C9.3,19.4 9.6,20 9.4,20.5 C8.6,22.3 6.8,23.5 4.9,23.5 L4.9,23.5 Z" id="Shape" sketch:type="MSShapeGroup"></path>
                <path d="M8.2,21.5 C8,21.5 7.9,21.5 7.7,21.4 C7.2,21.1 7,20.5 7.3,20 C8.8,17.3 10.6,16.2 12,15.7 L4.9,15.7 C4.3,15.7 3.9,15.3 3.9,14.7 C3.9,14.1 4.3,13.7 4.9,13.7 L14.4,13.7 C15,13.7 15.4,14.1 15.4,14.7 L15.4,16.5 C15.4,16.8 15.3,17.1 15,17.3 C14.8,17.5 14.5,17.6 14.2,17.5 C14.1,17.5 11.4,17 9.2,20.9 C8.9,21.3 8.6,21.5 8.2,21.5 L8.2,21.5 Z" id="Shape" sketch:type="MSShapeGroup"></path>
                <path d="M17.7,4.8 L17.1,4.8 C16.5,4.8 16.1,4.4 16.1,3.8 L16.1,1.6 C16.1,1 16.5,0.6 17.1,0.6 L17.7,0.6 C18.3,0.6 18.7,1 18.7,1.6 L18.7,3.8 C18.7,4.4 18.3,4.8 17.7,4.8 L17.7,4.8 Z" id="Shape" sketch:type="MSShapeGroup"></path>
                <path d="M19.7,3.4 L15.1,3.4 C14.5,3.4 14.1,3 14.1,2.4 L14.1,1 C14.1,0.4 14.5,0 15.1,0 L19.7,0 C20.3,0 20.7,0.4 20.7,1 L20.7,2.4 C20.7,2.9 20.3,3.4 19.7,3.4 L19.7,3.4 Z" id="Shape" sketch:type="MSShapeGroup"></path>
                <path d="M9.6,9.6 C9.4,9.6 9.1,9.5 9,9.4 L7.1,7.9 C6.6,7.6 6.5,7 6.9,6.5 L7.3,6 C7.5,5.8 7.7,5.6 8,5.6 C8.3,5.6 8.5,5.6 8.7,5.8 L10.6,7.2 C11,7.5 11.1,8.2 10.8,8.6 L10.4,9.1 C10.2,9.4 10,9.5 9.7,9.5 L9.6,9.6 L9.6,9.6 Z" id="Shape" sketch:type="MSShapeGroup"></path>
                <path d="M25.8,9.4 C25.5,9.4 25.2,9.2 25,9 L24.7,8.5 C24.6,8.3 24.5,8 24.6,7.7 C24.7,7.4 24.8,7.2 25,7.1 L27,5.8 C27.5,5.5 28.1,5.6 28.4,6.1 L28.7,6.6 C28.8,6.8 28.9,7.1 28.8,7.4 C28.7,7.7 28.6,7.9 28.4,8 L26.4,9.3 C26.1,9.4 25.9,9.4 25.8,9.4 L25.8,9.4 Z" id="Shape" sketch:type="MSShapeGroup"></path>
                <path d="M17.7,14.8 C17.1,14.8 16.7,14.4 16.7,13.8 L16.7,9 C16.7,8.4 17.1,8 17.7,8 C18.3,8 18.7,8.4 18.7,9 L18.7,13.8 C18.7,14.3 18.3,14.8 17.7,14.8 L17.7,14.8 Z" id="Shape" sketch:type="MSShapeGroup"></path>
                <path d="M17.7,14.8 C17.1,14.8 16.7,14.4 16.7,13.8 L16.7,9 C16.7,8.4 17.1,8 17.7,8 C18.3,8 18.7,8.4 18.7,9 L18.7,13.8 C18.7,14.3 18.3,14.8 17.7,14.8 L17.7,14.8 Z" id="Shape" sketch:type="MSShapeGroup"></path>
                <path d="M21.2,17.4 C21,17.4 20.8,17.3 20.6,17.2 L17.1,14.6 C16.7,14.3 16.6,13.6 16.9,13.2 C17.2,12.8 17.9,12.7 18.3,13 L21.8,15.6 C22.2,15.9 22.3,16.6 22,17 C21.8,17.3 21.5,17.4 21.2,17.4 L21.2,17.4 Z" id="Shape" sketch:type="MSShapeGroup"></path>
                <path d="M17.7,24.1 C15.3,24.1 13,23.3 11.1,21.7 C10.7,21.3 10.6,20.7 11,20.3 C11.4,19.9 12,19.8 12.4,20.2 C13.9,21.4 15.8,22.1 17.7,22.1 C22.3,22.1 26,18.4 26,13.8 C26,9.2 22.3,5.5 17.7,5.5 C13.8,5.5 10.5,8.1 9.6,11.9 C9.5,12.4 8.9,12.8 8.4,12.7 C7.9,12.6 7.5,12 7.6,11.5 C8.7,6.8 12.8,3.5 17.6,3.5 C23.4,3.5 28,8.1 28,13.8 C28,19.5 23.4,24.1 17.7,24.1 L17.7,24.1 Z" id="Shape" sketch:type="MSShapeGroup"></path>
            </g>
        </g>
    </g>
</svg>