<?xml version="1.0" encoding="UTF-8" standalone="no"?>
<svg width="26px" height="23px" viewBox="0 0 26 23" version="1.1" xmlns="http://www.w3.org/2000/svg" xmlns:xlink="http://www.w3.org/1999/xlink" xmlns:sketch="http://www.bohemiancoding.com/sketch/ns">
    <!-- Generator: Sketch 3.2.2 (9983) - http://www.bohemiancoding.com/sketch -->
    <title>cq_icons_Wear</title>
    <desc>Created with Sketch.</desc>
    <defs></defs>
    <g id="Page-1" stroke="none" stroke-width="1" fill="none" fill-rule="evenodd" sketch:type="MSPage">
        <g id="Desktop" sketch:type="MSArtboardGroup" transform="translate(-434.000000, -829.000000)" fill="#79C3E7">
            <g id="cq_icons_Wear" sketch:type="MSLayerGroup" transform="translate(434.000000, 829.000000)">
                <path d="M24.2,16.6 L24.2,16.6 L1,16.6 C0.7,16.6 0.5,16.5 0.3,16.3 C0.1,16.1 0,15.9 0,15.6 L0,6.2 C0,5.9 0.1,5.6 0.4,5.4 C0.6,5.2 1,5.1 1.3,5.2 L2.5,5.5 C4.2,6 6.1,5.9 8,5.3 L10.1,4.7 C10.3,4.6 10.5,4.6 10.7,4.7 C10.7,4.7 17,6.9 20.8,8.3 L21,8.3 C23.4,9.2 24.9,9.7 25,11.5 C25.1,12.7 25.2,14.7 25.2,15.4 L25.2,15.6 C25.2,16.2 24.8,16.6 24.2,16.6 L24.2,16.6 Z M2,14.6 L23.2,14.6 C23.2,13.7 23.1,12.4 23.1,11.6 C23.1,11.1 22.5,10.9 20.4,10.2 L20.2,10.1 C17,8.9 11.8,7.1 10.5,6.7 L8.6,7.2 C6.4,7.9 4.1,8 2,7.5 L2,14.6 L2,14.6 Z" id="Shape" sketch:type="MSShapeGroup"></path>
                <path d="M8.3,13.4 C8.2,13.4 8,13.4 7.9,13.3 C7.4,13.1 7.1,12.5 7.4,12 L9.9,5.9 C10.1,5.4 10.7,5.1 11.2,5.4 C11.7,5.6 12,6.2 11.7,6.7 L9.2,12.8 C9.1,13.1 8.7,13.4 8.3,13.4 L8.3,13.4 Z" id="Shape" sketch:type="MSShapeGroup"></path>
                <path d="M11.5,13.4 C11.4,13.4 11.2,13.4 11.1,13.3 C10.6,13.1 10.3,12.5 10.5,12 L12.6,6.7 C12.8,6.2 13.4,5.9 13.9,6.1 C14.4,6.3 14.7,6.9 14.5,7.4 L12.4,12.7 C12.3,13.1 11.9,13.4 11.5,13.4 L11.5,13.4 Z" id="Shape" sketch:type="MSShapeGroup"></path>
                <path d="M14.7,13.4 C14.6,13.4 14.5,13.4 14.3,13.3 C13.8,13.1 13.5,12.5 13.7,12 L15.5,7.5 C15.7,7 16.3,6.7 16.8,6.9 C17.3,7.1 17.6,7.7 17.4,8.2 L15.6,12.7 C15.5,13.1 15.1,13.4 14.7,13.4 L14.7,13.4 Z" id="Shape" sketch:type="MSShapeGroup"></path>
                <path d="M23.8,13.6 L1,13.6 C0.4,13.6 0,13.2 0,12.6 C0,12 0.4,11.6 1,11.6 L23.8,11.6 C24.4,11.6 24.8,12 24.8,12.6 C24.8,13.2 24.4,13.6 23.8,13.6 L23.8,13.6 Z" id="Shape" sketch:type="MSShapeGroup"></path>
                <g id="Group" transform="translate(4.000000, 0.000000)" sketch:type="MSShapeGroup">
                    <path d="M16.4,6.6 C16.1,6.6 15.8,6.4 15.6,6.1 C13.8,3.6 11,2 7.9,2 C6,2 4.2,2.5 2.7,3.6 C2.3,3.9 1.7,3.8 1.3,3.3 C1,2.9 1.2,2.2 1.6,1.9 C3.5,0.7 5.6,0 7.9,0 C11.7,0 15.2,1.9 17.2,5.1 C17.5,5.6 17.4,6.2 16.9,6.5 C16.7,6.6 16.5,6.6 16.4,6.6 L16.4,6.6 Z" id="Shape"></path>
                    <path d="M7.9,22.2 C5.2,22.2 2.7,21.2 0.7,19.5 C0.3,19.1 0.2,18.5 0.6,18.1 C1,17.7 1.6,17.6 2,18 C3.7,19.4 5.8,20.2 7.9,20.2 C10,20.2 12.2,19.4 13.8,18 C14.2,17.6 14.9,17.7 15.2,18.1 C15.6,18.5 15.5,19.2 15.1,19.5 C13.1,21.3 10.5,22.2 7.9,22.2 L7.9,22.2 Z" id="Shape"></path>
                </g>
            </g>
        </g>
    </g>
</svg>