<?xml version="1.0" encoding="UTF-8" standalone="no"?>
<svg width="86px" height="87px" viewBox="0 0 86 87" version="1.1" xmlns="http://www.w3.org/2000/svg" xmlns:xlink="http://www.w3.org/1999/xlink" xmlns:sketch="http://www.bohemiancoding.com/sketch/ns">
    <!-- Generator: Sketch 3.2.2 (9983) - http://www.bohemiancoding.com/sketch -->
    <title>cq_icons_Cube</title>
    <desc>Created with Sketch.</desc>
    <defs></defs>
    <g id="Page-1" stroke="none" stroke-width="1" fill="none" fill-rule="evenodd" sketch:type="MSPage">
        <g id="Desktop" sketch:type="MSArtboardGroup" transform="translate(-540.000000, -383.000000)" fill="#FFFFFF">
            <g id="cq_icons_Cube" sketch:type="MSLayerGroup" transform="translate(540.000000, 383.000000)">
                <g id="Group" sketch:type="MSShapeGroup">
                    <path d="M1,18.5 C0.4,18.5 0,18.9 0,19.5 L0,28.8 C0,29.4 0.4,29.8 1,29.8 C1.6,29.8 2,29.4 2,28.8 L2,19.5 C2,19 1.6,18.5 1,18.5 L1,18.5 Z" id="Shape"></path>
                    <path d="M84.7,61.2 C84.1,61.2 83.7,61.6 83.7,62.2 L83.7,66.8 L80.4,68.8 C79.9,69.1 79.8,69.7 80.1,70.2 C80.3,70.5 80.6,70.7 81,70.7 C81.2,70.7 81.3,70.7 81.5,70.6 L85.3,68.3 C85.6,68.1 85.8,67.8 85.8,67.4 L85.8,62.2 C85.7,61.6 85.3,61.2 84.7,61.2 L84.7,61.2 Z" id="Shape"></path>
                    <path d="M79.3,22 C79.3,21.9 79.2,21.9 79.3,22 C79.2,21.7 79,21.5 78.8,21.4 L64.2,12.9 C63.9,12.7 63.5,12.7 63.2,12.9 L57.4,16.3 L57.4,9.9 L57.4,9.8 L57.4,9.7 L57.4,9.6 C57.3,9.3 57.2,9.1 57,9 L42.4,0.5 C42.1,0.3 41.7,0.3 41.4,0.5 L27.1,9 L27,9.1 C27,9.1 26.9,9.1 26.9,9.2 L26.8,9.3 C26.8,9.3 26.8,9.3 26.7,9.4 C26.7,9.4 26.7,9.5 26.6,9.5 L26.6,9.6 L26.6,9.8 L26.6,9.9 L26.6,9.9 L26.6,16.5 L20.5,12.9 C20.2,12.7 19.8,12.7 19.5,12.9 L5.3,21.4 L5.2,21.5 C5.2,21.5 5.1,21.5 5.1,21.6 L5,21.7 C5,21.7 5,21.7 4.9,21.8 C4.9,21.8 4.9,21.9 4.8,21.9 L4.8,22 L4.8,22.2 L4.8,22.3 L4.8,22.3 L4.8,38.9 C4.8,39.3 5,39.6 5.3,39.8 L11.3,43.3 L5.3,46.9 L5.2,47 C5.2,47 5.1,47 5.1,47.1 C5,46.9 5,47 4.9,47 C4.9,47 4.9,47 4.8,47.1 C4.8,47.1 4.8,47.2 4.7,47.2 L4.7,47.3 L4.7,47.5 L4.7,47.6 L4.7,47.6 L4.7,64.2 C4.7,64.6 4.9,64.9 5.2,65.1 L19.5,73.4 L19.5,73.4 C19.6,73.4 19.6,73.5 19.7,73.5 L19.8,73.5 L20.1,73.5 L20.4,73.5 C20.4,73.5 20.5,73.5 20.5,73.4 L20.6,73.4 L20.6,73.4 L26.5,69.9 L26.5,77 C26.5,77.4 26.7,77.7 27,77.9 L41.3,86.2 L41.3,86.2 C41.4,86.2 41.4,86.3 41.5,86.3 L41.6,86.3 L41.9,86.3 L42.2,86.3 C42.2,86.3 42.3,86.3 42.3,86.2 L42.4,86.2 L42.4,86.2 L57,77.6 C57.3,77.4 57.5,77.1 57.5,76.7 L57.5,70 L63.4,73.4 L63.4,73.4 C63.5,73.4 63.5,73.4 63.6,73.5 L63.7,73.5 L64,73.5 L64.3,73.5 C64.3,73.5 64.4,73.5 64.4,73.4 L64.5,73.4 L64.5,73.4 L79.1,64.8 C79.4,64.6 79.6,64.3 79.6,63.9 L79.6,47.6 L79.6,47.5 L79.6,47.4 L79.6,47.3 C79.5,47.1 79.4,46.9 79.2,46.8 L73,43.2 L79.2,39.5 C79.5,39.3 79.7,39 79.7,38.6 L79.7,22.2 L79.7,22.1 L79.3,22 L79.3,22 Z M77.3,23.9 L77.3,38 L64.7,45.4 L64.7,31.1 L77.3,23.9 L77.3,23.9 Z M77.3,49.3 L77.3,63.4 L64.7,70.8 L64.7,56.4 L77.3,49.3 L77.3,49.3 Z M55.3,76.1 L42.7,83.5 L42.7,69.1 L55.3,62 L55.3,76.1 L55.3,76.1 Z M32.6,22.2 L20,29.3 L7.7,22.2 L20,14.9 L32.6,22.2 L32.6,22.2 Z M54.5,9.9 L41.9,17 L29.6,9.9 L41.9,2.6 L54.5,9.9 L54.5,9.9 Z M76.3,22.2 L63.7,29.3 L51.4,22.2 L63.7,14.9 L76.3,22.2 L76.3,22.2 Z M62.7,45.4 L57.4,42.3 L57.4,41.7 L57.4,33.6 L57.4,33.5 L57.4,33.4 L57.4,33.3 C57.3,33.1 57.2,32.9 57,32.8 L50.5,29 L50.5,24 L62.8,31.1 L62.8,45.4 L62.7,45.4 Z M55.5,49.3 L55,49.6 L42.9,56.7 L42.9,42.4 L55.5,35.3 L55.5,49.3 L55.5,49.3 Z M41.7,67.4 L29.4,60.3 L36.1,56.3 L41.3,59.3 L41.3,59.3 C41.4,59.3 41.4,59.4 41.5,59.4 L41.5,59.4 L41.8,59.4 L42.1,59.4 L42.2,59.4 C42.2,59.4 42.3,59.4 42.3,59.3 L42.3,59.3 L47.4,56.3 L54.2,60.2 L41.7,67.4 L41.7,67.4 Z M28.6,49.6 L28.6,35.3 L40.9,42.4 L40.9,56.7 L28.6,49.6 L28.6,49.6 Z M24.9,43.1 L21,45.4 L21,40.9 L21,39.7 L21,38.5 L21,31 L27.3,27.4 L28.3,26.8 L29.3,26.2 L33.5,23.8 L33.5,28.7 L33.5,28.8 L32.6,29.3 L31.6,29.9 L27,32.6 L26.9,32.7 C26.9,32.7 26.8,32.7 26.8,32.8 L26.7,32.9 C26.7,32.9 26.7,32.9 26.6,33 C26.6,33 26.6,33.1 26.5,33.1 L26.5,33.2 L26.5,33.4 L26.5,33.5 L26.5,33.5 L26.5,41.7 L26.5,42 L25.7,42.4 L24.9,43.1 L24.9,43.1 Z M42.9,26.8 L54.5,33.5 L41.9,40.6 L29.6,33.5 L40.9,26.8 L41.9,26.2 L42.9,26.8 L42.9,26.8 Z M55.5,17.5 L49,21.4 L48.9,21.5 C48.9,21.5 48.8,21.5 48.8,21.6 L48.7,21.7 C48.7,21.7 48.7,21.7 48.6,21.8 C48.6,21.8 48.6,21.9 48.5,21.9 L48.5,22 L48.5,22.2 L48.5,22.3 L48.5,22.3 L48.5,27.8 L42.9,24.6 L42.9,18.8 L55.5,11.7 L55.5,17.5 L55.5,17.5 Z M28.6,11.6 L28.6,11.6 L40.9,18.7 L40.9,24.5 L35.6,27.7 L35.6,22.2 L35.6,22.1 L35.6,22 L35.6,21.9 C35.5,21.7 35.4,21.5 35.2,21.4 L28.7,17.6 L28.7,11.6 L28.6,11.6 Z M6.8,24 L6.8,24 L19,31.1 L19,45.4 L6.8,38.3 L6.8,24 L6.8,24 Z M19.5,48 L19.5,48 C19.6,48 19.6,48.1 19.7,48.1 L19.7,48.1 L20,48.1 L20.3,48.1 L20.4,48.1 C20.4,48.1 20.5,48.1 20.5,48 L20.5,48 L26.6,44.4 L26.6,50.2 C26.6,50.4 26.7,50.6 26.8,50.8 L20,54.7 L7.7,47.6 L13.2,44.3 L19.5,48 L19.5,48 Z M6.8,49.3 L6.8,49.3 L19,56.4 L19,70.7 L6.8,63.6 L6.8,49.3 L6.8,49.3 Z M21,56.4 L21,56.4 L28.8,52 L33.6,54.8 L33.6,55.5 L27,59.4 L26.9,59.5 C26.9,59.5 26.8,59.5 26.8,59.6 L26.7,59.7 C26.7,59.7 26.7,59.7 26.6,59.8 C26.6,59.8 26.6,59.9 26.5,59.9 L26.5,60 L26.5,60.2 L26.5,60.3 L26.5,60.3 L26.5,67.5 L21,70.7 L21,56.4 L21,56.4 Z M28.5,62 L40.8,69.1 L40.8,83.4 L28.5,76.3 L28.5,62 L28.5,62 Z M57.3,60.3 L57.3,60.3 L57.3,60.2 L57.3,60.1 L57.3,60 C57.2,59.8 57.1,59.6 56.9,59.5 L50.6,55.8 L50.6,54.6 L55.1,52 L62.8,56.5 L62.8,70.8 L57.4,67.6 L57.4,60.3 L57.3,60.3 Z M63.7,54.7 L57,50.8 C57.3,50.6 57.5,50.3 57.5,49.9 L57.5,44.6 L63.3,47.9 L63.3,47.9 C63.4,47.9 63.4,48 63.5,48 L63.5,48 L63.8,48 L64.1,48 C64.1,48 64.2,48 64.2,47.9 L64.3,47.9 L64.3,47.9 L70.6,44.2 L76.3,47.5 L63.7,54.7 L63.7,54.7 Z" id="Shape"></path>
                </g>
            </g>
        </g>
    </g>
</svg>