<?xml version="1.0" encoding="UTF-8" standalone="no"?>
<svg width="50px" height="109px" viewBox="0 0 50 109" version="1.1" xmlns="http://www.w3.org/2000/svg" xmlns:xlink="http://www.w3.org/1999/xlink" xmlns:sketch="http://www.bohemiancoding.com/sketch/ns">
    <!-- Generator: Sketch 3.2.2 (9983) - http://www.bohemiancoding.com/sketch -->
    <title>cq_icons_Hand</title>
    <desc>Created with Sketch.</desc>
    <defs></defs>
    <g id="Page-1" stroke="none" stroke-width="1" fill="none" fill-rule="evenodd" sketch:type="MSPage">
        <g id="Desktop" sketch:type="MSArtboardGroup" transform="translate(-511.000000, -142.000000)" fill="#FFFFFF">
            <g id="cq_icons_Hand" sketch:type="MSLayerGroup" transform="translate(511.000000, 142.000000)">
                <g id="Group" sketch:type="MSShapeGroup">
                    <path d="M41.4,0.4 C37.6,0.4 34.1,2.5 32.6,6 C32.4,6.5 32.6,7.1 33.1,7.3 C33.6,7.5 34.2,7.3 34.4,6.8 C35.6,4.1 38.3,2.3 41.3,2.4 C44.3,2.5 47,4.3 48.1,7.1 C48.3,7.5 48.6,7.7 49,7.7 C49.1,7.7 49.3,7.7 49.4,7.6 C49.9,7.4 50.2,6.8 50,6.3 C48.6,2.8 45.2,0.5 41.4,0.4 L41.4,0.4 Z" id="Shape"></path>
                    <path d="M49.3,12.3 C48.8,12.1 48.2,12.3 48,12.8 C47.6,13.7 47.1,14.4 46.5,15 C46.3,14 46,13 45.7,12.1 C46.1,11.4 46.3,10.7 46.3,9.9 C46.3,7.1 44.1,4.8 41.3,4.8 C38.6,4.8 36.3,7 36.3,9.8 C36.3,10.9 36.6,11.8 37.1,12.7 C36.8,13.6 36.6,14.5 36.4,15.5 C35.5,14.7 34.9,13.8 34.4,12.7 C34.2,12.2 33.6,11.9 33.1,12.1 C32.6,12.3 32.3,12.9 32.5,13.4 C33.2,15.2 34.5,16.7 36.1,17.7 C36,18.9 36,20 36,20.9 L36,36.2 C36,36.7 36.4,37.1 36.9,37.2 C37.4,37.3 37.9,36.9 38,36.4 C38.3,34.7 39.8,33.5 41.6,33.5 C43.4,33.5 44.9,34.8 45.2,36.5 C45.3,37 45.7,37.3 46.2,37.3 L46.3,37.3 C46.8,37.3 47.2,36.8 47.2,36.3 L47.2,20.9 C47.2,20 47.2,18.8 47,17.4 C48.3,16.4 49.4,15.2 50,13.6 C50.1,13.2 49.9,12.6 49.3,12.3 L49.3,12.3 Z M45,23.6 L45,32.7 C44,31.9 42.8,31.4 41.4,31.4 C40.1,31.4 38.8,31.9 37.9,32.7 L37.9,23.6 C38,23.6 38.1,23.7 38.1,23.7 C38.2,23.7 38.3,23.8 38.4,23.8 C38.6,23.9 38.8,23.9 39,24 C39.1,24 39.2,24.1 39.3,24.1 C39.5,24.2 39.7,24.2 40,24.2 C40.1,24.2 40.2,24.2 40.3,24.3 L40.4,24.3 L40.4,27.7 C40.4,27.8 40.4,28 40.5,28.1 C40.6,28.5 41,28.7 41.4,28.7 C41.8,28.7 42.2,28.4 42.3,28.1 C42.3,28 42.4,27.9 42.4,27.7 L42.4,24.3 L42.5,24.3 C42.6,24.3 42.7,24.3 42.8,24.2 C43,24.2 43.3,24.1 43.5,24.1 C43.6,24.1 43.7,24 43.8,24 C44,23.9 44.2,23.9 44.4,23.8 C44.5,23.8 44.6,23.7 44.7,23.7 C44.8,23.6 44.9,23.6 45,23.6 L45,23.6 Z M45,20.9 C45,21.4 44,22.1 42.5,22.3 L42.5,19.2 L42.5,19 C42.5,18.4 42.1,18 41.5,18 C40.9,18 40.5,18.4 40.5,19 L40.5,19.2 L40.5,22.3 C38.9,22.1 38,21.4 38,20.9 C38,20.2 38,19.4 38.1,18.7 C38.1,18 38.2,17.3 38.3,16.6 C38.4,15.7 38.6,14.9 38.8,14.1 C39,13.4 39.2,12.7 39.5,12.2 C40,11.2 40.7,10.6 41.6,10.6 C42.4,10.6 43,11.1 43.5,12 C43.8,12.5 44.1,13.2 44.3,13.9 C44.5,14.7 44.7,15.5 44.8,16.4 C44.9,17.1 45,17.8 45,18.5 C44.9,19.3 45,20.1 45,20.9 L45,20.9 Z M38.2,9.8 C38.2,8.2 39.6,6.8 41.3,6.8 L41.3,6.8 C43,6.8 44.3,8.2 44.3,9.9 C43.6,9.1 42.6,8.6 41.5,8.6 C40.1,8.6 39.1,9.3 38.3,10.3 C38.2,10.1 38.2,10 38.2,9.8 L38.2,9.8 Z" id="Shape"></path>
                    <path d="M29.7,95 C29.1,95 28.7,95.4 28.7,96 C28.7,97.4 27.6,98.5 26.2,98.5 L22.9,98.5 C21.5,98.5 20.4,97.4 20.4,96 C20.4,95.4 20,95 19.4,95 C18.8,95 18.4,95.4 18.4,96 C18.4,98.5 20.4,100.5 22.9,100.5 L26.2,100.5 C28.7,100.5 30.7,98.5 30.7,96 C30.7,95.4 30.3,95 29.7,95 L29.7,95 Z" id="Shape"></path>
                    <path d="M43.6,84.1 C43.4,84.3 43.2,84.5 43.1,84.7 C41.5,86.5 39.6,87.8 37.5,88.7 C37.2,88.8 36.8,89 36.5,89.1 C36.2,89.2 35.8,89.3 35.5,89.4 C34.9,89.6 34.2,89.7 33.6,89.9 C33.3,90 32.9,90 32.6,90.1 C32.3,90.2 31.9,90.2 31.6,90.3 C30.3,90.5 29,90.6 27.7,90.6 L26.7,90.6 L25.7,90.6 L24.7,90.6 L23.8,90.6 L22.8,90.6 L21.8,90.6 C20.3,90.5 18.9,90.4 17.4,90.2 C17.1,90.1 16.7,90.1 16.4,90 C16.1,89.9 15.7,89.9 15.4,89.8 C14.8,89.7 14.1,89.5 13.5,89.3 C13.2,89.2 12.8,89.1 12.5,88.9 C12.2,88.8 11.8,88.6 11.5,88.5 C9.6,87.6 7.8,86.4 6.3,84.7 C6.1,84.5 5.9,84.3 5.8,84.1 C5.5,83.7 4.8,83.6 4.4,83.9 C4,84.2 3.9,84.9 4.2,85.3 C6.2,87.9 8.8,89.5 11.5,90.6 L11.5,102.4 C11.5,103.6 12.5,104.6 13.7,104.6 L15,104.6 C16.2,104.6 17.2,103.6 17.2,102.4 L17.2,92.2 C18.7,92.4 20.1,92.5 21.6,92.6 L21.6,95 C21.6,95.3 21.7,95.6 21.8,95.9 C22.2,96.7 22.9,97.2 23.8,97.2 L25.3,97.2 C26.2,97.2 27,96.7 27.3,95.9 C27.4,95.6 27.5,95.3 27.5,95 L27.5,92.6 C28.8,92.5 30.1,92.4 31.4,92.3 L31.4,102.5 C31.4,103.7 32.4,104.7 33.6,104.7 L35.1,104.7 C36.3,104.7 37.3,103.7 37.3,102.5 L37.3,90.9 C40.2,89.8 42.9,88.1 45,85.4 C45.3,85 45.3,84.3 44.8,84 C44.5,83.6 43.9,83.7 43.6,84.1 L43.6,84.1 Z M35.4,102.5 C35.4,102.6 35.3,102.7 35.2,102.7 L33.7,102.7 C33.6,102.7 33.5,102.6 33.5,102.5 L33.5,92 C34.1,91.9 34.8,91.7 35.4,91.6 L35.4,102.5 L35.4,102.5 Z M25.5,95 C25.5,95.1 25.4,95.2 25.3,95.2 L23.8,95.2 C23.7,95.2 23.6,95.1 23.6,95 L23.6,92.7 L24.5,92.7 L25.5,92.7 L25.5,95 L25.5,95 Z M15.3,102.5 C15.3,102.6 15.2,102.7 15.1,102.7 L13.6,102.7 C13.5,102.7 13.4,102.6 13.4,102.5 L13.4,91.4 C14,91.6 14.7,91.7 15.3,91.9 L15.3,102.5 L15.3,102.5 Z" id="Shape"></path>
                    <path d="M41.4,43 C43.5,43 45.2,41.3 45.2,39.2 C45.2,37.1 43.5,35.4 41.4,35.4 C39.3,35.4 37.6,37.1 37.6,39.2 C37.6,41.3 39.3,43 41.4,43 L41.4,43 Z M41.4,37.5 C42.4,37.5 43.2,38.3 43.2,39.3 C43.2,40.3 42.4,41.1 41.4,41.1 C40.4,41.1 39.6,40.3 39.6,39.3 C39.6,38.3 40.4,37.5 41.4,37.5 L41.4,37.5 Z" id="Shape"></path>
                    <path d="M24.6,101.2 C22.5,101.2 20.8,102.9 20.8,105 C20.8,107.1 22.5,108.8 24.6,108.8 C26.7,108.8 28.4,107.1 28.4,105 C28.4,102.9 26.7,101.2 24.6,101.2 L24.6,101.2 Z M24.6,106.7 C23.6,106.7 22.8,105.9 22.8,104.9 C22.8,103.9 23.6,103.1 24.6,103.1 C25.6,103.1 26.4,103.9 26.4,104.9 C26.4,105.9 25.6,106.7 24.6,106.7 L24.6,106.7 Z" id="Shape"></path>
                    <path d="M47,42.5 C47,42 46.5,41.6 46,41.5 C45.5,41.4 45,41.8 44.9,42.3 C44.6,44 43.1,45.2 41.3,45.2 C39.5,45.2 38,43.9 37.7,42.2 C37.6,41.7 37.1,41.3 36.6,41.4 C36.1,41.4 35.7,41.9 35.7,42.4 L35.7,55.6 L35.2,55.6 L35.2,40.6 C35.3,40.3 35.2,40 35.2,39.7 C35.2,36.6 32.7,34.1 29.6,34.1 C26.5,34.1 24,36.6 24,39.7 C24,40 24,40.3 24.1,40.6 L24.1,55.6 L23.6,55.6 L23.6,43.5 C23.7,43.2 23.6,42.9 23.6,42.6 C23.6,39.5 21.2,37 18.1,37 C15,37 12.5,39.5 12.5,42.6 L12.5,43.5 L12.5,55.7 L12,55.7 L12,46.5 C12.1,46.1 12,45.8 12,45.5 C12,42.4 9.5,39.9 6.4,39.9 C3.3,39.9 0.8,42.4 0.8,45.5 L0.8,45.5 L0.8,70 C1.4,75.9 4.4,81.6 8.9,84.8 C9.6,85.3 10.4,85.8 11.3,86.3 C11.6,86.5 11.9,86.6 12.2,86.8 C12.5,87 12.8,87.1 13.2,87.3 C13.8,87.6 14.4,87.8 15.1,88 C15.4,88.1 15.8,88.2 16.1,88.3 C16.4,88.4 16.8,88.5 17.1,88.6 C18.6,89 20.2,89.2 21.9,89.3 C22.6,89.3 23.3,89.4 24,89.4 C25,89.4 25.9,89.3 26.9,89.3 C28.4,89.2 29.9,88.9 31.3,88.6 C31.6,88.5 32,88.4 32.3,88.3 C32.6,88.2 33,88.1 33.3,88 C34,87.8 34.6,87.5 35.2,87.3 C35.5,87.2 35.8,87 36.1,86.9 C36.4,86.7 36.7,86.6 37,86.4 C37.7,86 38.4,85.6 39,85.1 C43.4,81.9 46.2,77.2 46.8,71.3 L46.8,42.5 L47,42.5 Z M35.6,84.6 C35.5,84.6 35.4,84.7 35.3,84.7 C34.1,85.3 32.9,85.7 31.5,86.1 C29.2,86.7 26.8,87.1 24.1,87.1 C21.6,87.1 19.3,86.8 17.1,86.2 C16.7,86.1 16.2,86 15.8,85.8 C15.5,85.7 15.1,85.6 14.8,85.4 C14.1,85.2 13.5,84.9 12.9,84.6 C12.9,84.6 12.8,84.6 12.8,84.5 C7.4,81.9 3.5,77 3,70.7 L3,63.4 L3,63 L3,62.4 C3,62.1 3.1,61.7 3.2,61.4 C3.9,59.2 5.9,57.6 8.3,57.6 L40,57.6 C42.3,57.6 44.2,59 45,61 C45.2,61.4 45.2,61.9 45.3,62.3 L45.3,68.9 L45.3,70.7 C44.7,77 41.1,81.9 35.6,84.6 L35.6,84.6 Z M3.1,51.5 L3.1,48.1 C3.3,48.2 3.5,48.3 3.7,48.3 C4.6,48.6 5.6,48.8 6.7,48.8 C7.8,48.8 8.8,48.6 9.7,48.3 C9.9,48.2 10.1,48.2 10.2,48.1 L10.2,51.5 L10.2,55.6 L8.4,55.6 C6.3,55.6 4.4,56.5 3.1,57.9 L3.1,51.5 L3.1,51.5 Z M14.7,46.9 L14.7,45.2 C15.3,45.5 16,45.7 16.8,45.8 C17.3,45.9 17.7,45.9 18.2,45.9 C18.7,45.9 19.2,45.9 19.6,45.8 C20.4,45.7 21.1,45.5 21.7,45.2 L21.7,46.9 L21.7,55.6 L14.6,55.6 L14.6,46.9 L14.7,46.9 Z M26.3,44 L26.3,42.3 C26.9,42.6 27.6,42.8 28.4,42.9 C28.9,43 29.3,43 29.8,43 C30.3,43 30.8,43 31.2,42.9 C32,42.8 32.7,42.6 33.3,42.3 L33.3,44 L33.3,55.5 L26.2,55.5 L26.2,44 L26.3,44 Z M37.9,46 C38.9,46.8 40.1,47.3 41.4,47.3 C42.7,47.3 44,46.8 44.9,46 L44.9,57.6 C43.6,56.4 41.8,55.6 39.9,55.6 L37.8,55.6 L37.8,46 L37.9,46 Z M29.8,36 C31.7,36 33.3,37.5 33.4,39.3 C33.4,39.4 33.3,39.5 33.3,39.6 C33.3,40.2 31.9,41.1 29.8,41.1 C27.7,41.1 26.3,40.2 26.3,39.6 L26.3,39.4 C26.3,37.5 27.9,36 29.8,36 L29.8,36 Z M18.2,38.9 C20.1,38.9 21.7,40.4 21.8,42.2 C21.8,42.3 21.7,42.4 21.7,42.5 C21.7,43.1 20.3,44 18.2,44 C16.1,44 14.7,43.1 14.7,42.5 L14.7,42.3 C14.7,40.4 16.3,38.9 18.2,38.9 L18.2,38.9 Z M6.6,41.8 C8.5,41.8 10.1,43.3 10.2,45.1 C10.2,45.2 10.1,45.3 10.1,45.4 C10.1,46 8.7,46.9 6.6,46.9 C4.5,46.9 3.1,46 3.1,45.4 C3.1,45.3 3.1,45.2 3,45.2 C3.1,43.3 4.7,41.8 6.6,41.8 L6.6,41.8 Z" id="Shape"></path>
                    <path d="M29.8,59.9 L28.3,59.9 C27.3,59.9 26.5,60.5 26.2,61.4 C26.1,61.6 26.1,61.9 26.1,62.1 L26.1,62.4 L26.1,69 C26.1,70.2 27.1,71.2 28.3,71.2 L29.8,71.2 C31,71.2 32,70.2 32,69 L32,62.4 L32,62.1 C32,61.8 31.9,61.6 31.9,61.4 C31.6,60.5 30.8,59.9 29.8,59.9 L29.8,59.9 Z M30,68.9 C30,69 29.9,69.1 29.8,69.1 L28.3,69.1 C28.2,69.1 28.1,69 28.1,68.9 L28.1,62.3 L28.1,62 C28.1,61.9 28.2,61.8 28.3,61.8 L29.8,61.8 C29.9,61.8 30,61.9 30,62 L30,62.3 L30,68.9 L30,68.9 Z" id="Shape"></path>
                    <path d="M41.7,68.9 L41.7,62 C41.7,61.7 41.6,61.5 41.6,61.3 C41.3,60.4 40.5,59.8 39.5,59.8 L38,59.8 L37.8,59.8 C37.4,59.8 37.1,59.9 36.8,60.1 C36.3,60.4 35.9,60.9 35.8,61.5 C35.8,61.7 35.7,61.8 35.7,62 L35.7,68.9 C35.7,70.1 36.7,71.1 37.9,71.1 L39.4,71.1 C40.7,71.2 41.7,70.2 41.7,68.9 L41.7,68.9 Z M39.7,68.9 C39.7,69 39.6,69.1 39.5,69.1 L38,69.1 C37.9,69.1 37.8,69 37.8,68.9 L37.8,62.3 L37.8,62 C37.8,61.9 37.9,61.8 38,61.8 L39.5,61.8 C39.6,61.8 39.7,61.9 39.7,62 L39.7,62.3 L39.7,68.9 L39.7,68.9 Z" id="Shape"></path>
                    <path d="M19.7,59.9 L18.2,59.9 C17.2,59.9 16.4,60.5 16.1,61.4 C16,61.6 16,61.8 16,62.1 L16,62.4 L16,69 C16,70.2 17,71.2 18.2,71.2 L19.7,71.2 C20.9,71.2 21.9,70.2 21.9,69 L21.9,62.4 L21.9,62.1 C21.9,61.8 21.8,61.6 21.8,61.4 C21.4,60.5 20.6,59.9 19.7,59.9 L19.7,59.9 Z M19.9,68.9 C19.9,69 19.8,69.1 19.7,69.1 L18.2,69.1 C18.1,69.1 18,69 18,68.9 L18,62.3 L18,62 C18,61.9 18.1,61.8 18.2,61.8 L19.7,61.8 C19.8,61.8 19.9,61.9 19.9,62 L19.9,62.3 L19.9,68.9 L19.9,68.9 Z" id="Shape"></path>
                    <path d="M10.2,60 C10,59.9 9.8,59.9 9.6,59.9 L8,59.9 C7,59.9 6.2,60.5 5.9,61.4 C5.8,61.6 5.8,61.9 5.8,62.1 L5.8,62.4 L5.8,69 C5.8,70.2 6.8,71.2 8,71.2 L9.5,71.2 C10.7,71.2 11.7,70.2 11.7,69 L11.7,62.1 C11.7,61.5 11.5,61 11.1,60.6 C10.9,60.3 10.5,60.1 10.2,60 L10.2,60 Z M9.7,68.9 C9.7,69 9.6,69.1 9.5,69.1 L8,69.1 C7.9,69.1 7.8,69 7.8,68.9 L7.8,62.3 L7.8,62 C7.8,61.9 7.9,61.8 8,61.8 L9.5,61.8 C9.6,61.8 9.7,61.9 9.7,62 L9.7,62.3 L9.7,68.9 L9.7,68.9 Z" id="Shape"></path>
                </g>
            </g>
        </g>
    </g>
</svg>