<?xml version="1.0" encoding="UTF-8" standalone="no"?>
<svg width="47px" height="47px" viewBox="0 0 47 47" version="1.1" xmlns="http://www.w3.org/2000/svg" xmlns:xlink="http://www.w3.org/1999/xlink" xmlns:sketch="http://www.bohemiancoding.com/sketch/ns">
    <!-- Generator: Sketch 3.2.2 (9983) - http://www.bohemiancoding.com/sketch -->
    <title>Group</title>
    <desc>Created with Sketch.</desc>
    <defs></defs>
    <g id="Page-1" stroke="none" stroke-width="1" fill="none" fill-rule="evenodd" sketch:type="MSPage">
        <g id="Desktop" sketch:type="MSArtboardGroup" transform="translate(-445.000000, -427.000000)">
            <g id="cq_icons_Logo" sketch:type="MSLayerGroup" transform="translate(445.000000, 427.000000)">
                <g id="Group" sketch:type="MSShapeGroup">
                    <path d="M46.9,23.4 C46.9,36.3 36.4,46.8 23.5,46.8 C10.5,46.9 0,36.4 0,23.4 C0,10.5 10.5,0 23.4,0 C36.4,0 46.9,10.5 46.9,23.4 L46.9,23.4 Z" id="Shape" fill="#FFFFFF"></path>
                    <path d="M32.5,22.4 C32,17.9 28.1,14.4 23.5,14.4 C18.9,14.4 15.2,17.8 14.5,22.2 L11,22.2 C11.3,19.8 12.2,17.6 13.6,15.8 L11.3,13.5 C9,16.2 7.7,19.7 7.7,23.5 C7.7,31.7 13.9,38.4 21.9,39.2 L21.9,36 C16.2,35.3 11.7,30.7 11,25 L11,25 L14.5,25 C15.2,29.3 18.9,32.6 23.4,32.6 C28,32.6 31.8,29.2 32.4,24.8 L29.1,24.8 L29.1,24.7 C28.6,27.4 26.2,29.5 23.3,29.5 C20.1,29.5 17.4,26.9 17.4,23.6 C17.4,20.3 20,17.7 23.3,17.7 C26.2,17.7 28.6,19.8 29.1,22.5 L29.1,22.5 L32.5,22.4 L32.5,22.4 Z M25,35.9 C31.2,35.1 35.9,29.9 35.9,23.5 C35.9,16.6 30.3,11 23.4,11 C20.6,11 17.9,12 15.8,13.6 L13.5,11.3 C16.2,9.1 19.7,7.8 23.4,7.8 C32.1,7.8 39.2,14.9 39.2,23.6 C39.2,27.3 37.9,30.8 35.7,33.5 L35.7,33.5 L38.9,36.7 L36.7,38.9 L33.5,35.7 C31.1,37.7 28.2,39 25,39.3 L25,35.9 L25,35.9 Z" id="Oval-3" fill="#172357"></path>
                </g>
            </g>
        </g>
    </g>
</svg>